<svg width="526" height="922" viewBox="0 0 526 922" fill="none" xmlns="http://www.w3.org/2000/svg">
<path d="M338.02 33.3237C335.721 97.9002 333.231 254.54 332.081 401.014C331.123 534.685 329.783 607.358 328.25 605.851C327.867 605.475 326.718 559.161 325.568 502.68C320.588 256.235 317.523 130.094 316.182 120.869C315.415 115.409 314.074 110.703 312.925 110.514C311.776 110.326 310.626 138.755 309.86 191.094C308.328 289.747 306.412 462.955 306.029 524.331C305.454 597.756 302.964 547.676 300.474 415.134C297.983 280.333 295.685 207.285 293.961 205.779C293.386 205.026 291.853 205.402 290.896 206.343C288.788 208.414 286.298 283.157 283.999 401.579C283.425 440.739 282.467 472.368 282.084 471.992C281.509 471.615 279.977 437.915 278.253 397.06C276.72 356.206 274.996 321 274.421 318.552C273.847 316.105 272.506 314.41 271.165 314.975C268.866 315.728 267.908 338.509 263.119 491.383C261.395 546.17 259.671 545.04 256.606 486.677C254.307 444.881 251.051 408.921 249.518 406.286C247.603 403.273 243.388 404.779 242.239 408.921C241.664 411.369 239.366 432.267 237.258 455.612C231.512 520.377 231.128 523.766 229.596 522.071C228.83 521.318 226.723 507.01 224.999 490.442C223.274 473.874 221.167 457.872 220.401 454.859C218.485 448.27 215.037 446.387 213.505 451.282C211.781 456.742 205.076 522.448 203.544 547.488C202.203 571.775 198.946 581 198.946 560.667C198.946 541.651 195.307 449.964 193.199 415.134C190.709 373.715 189.56 365.243 186.303 365.243C182.472 365.243 180.939 376.916 176.917 445.257C171.936 528.096 170.404 548.241 169.446 549.182C168.296 550.5 166.956 541.651 164.465 514.917C160.251 468.791 157.569 455.612 152.78 455.612C151.822 455.612 150.098 457.683 149.14 460.319C147.033 465.591 139.562 508.893 139.562 515.294C139.562 524.331 136.114 519.059 133.049 505.127C128.643 484.982 124.429 480.464 120.598 491.76C119.448 495.149 116.958 508.893 114.851 522.26C112.744 535.439 110.637 546.735 110.062 547.3C108.912 548.429 107.763 544.099 104.123 527.72C100.867 511.717 96.461 500.797 93.7791 500.797C90.9057 500.797 86.4998 508.139 84.0095 517.176C82.8602 521.695 81.5192 525.272 80.9445 525.272C80.3699 525.272 77.4964 523.389 74.2399 520.942C68.8762 517.176 66.0028 516.8 36.5023 516.235C5.661 515.67 -2.19301 516.8 0.488845 521.318C1.44665 522.636 12.5572 523.389 34.0121 523.389H66.3859L72.1327 529.226C79.6036 536.756 84.0095 535.815 88.9901 525.272C93.9707 515.482 93.7791 515.294 99.3344 541.275C103.549 560.478 105.464 564.809 110.062 564.809C114.085 564.809 116.192 558.031 120.406 532.238C122.513 519.812 124.62 509.269 125.004 508.704C125.578 508.328 126.536 510.399 127.111 513.223C129.793 525.46 134.965 539.204 137.072 539.769C141.095 541.087 143.393 533.368 147.225 507.951C149.332 494.396 151.247 482.911 151.822 482.535C152.78 481.405 156.42 507.198 158.718 532.803C161.592 564.244 164.465 583.071 167.339 586.648C169.637 589.848 169.829 589.66 171.745 586.271C174.618 581 177.683 553.512 179.79 514.917C182.472 466.155 184.004 449.964 185.728 448.835C186.686 448.27 187.453 452.035 187.453 457.307C187.453 471.427 193.008 595.685 194.349 611.311C195.498 624.678 197.414 629.197 201.053 625.62C203.352 623.36 205.842 603.969 210.248 552.571C212.547 527.72 214.846 503.621 215.42 498.914C216.57 491.383 216.953 491.007 218.102 495.337C218.869 497.973 220.018 506.822 220.784 515.105C222.317 532.05 225.573 556.713 226.914 561.42C228.447 566.127 232.853 565.562 234.193 560.478C234.768 558.219 236.875 537.698 239.174 514.917C241.281 492.137 243.58 468.038 244.155 461.449C245.879 443.94 247.986 450.717 249.327 477.263C253.733 562.549 258.522 622.043 261.012 624.678C261.778 625.243 262.928 624.867 263.885 623.925C266.184 621.666 269.824 555.772 270.015 512.658C270.59 444.316 272.697 454.106 274.23 530.92C275.954 625.243 278.444 690.761 280.168 692.455C284.574 696.597 285.34 679.465 288.022 530.92C288.597 500.42 289.555 453.73 290.321 427.372C291.662 382.375 291.853 380.869 293.003 401.955C293.577 414.381 294.918 468.226 295.685 521.507C297.792 669.11 302.964 823.303 305.646 824.056C306.987 824.621 308.136 820.855 308.902 812.948C310.626 795.627 313.883 584.012 313.883 491.383C313.883 446.387 314.649 412.687 315.607 414.193C316.565 415.699 317.906 455.989 318.48 503.621C319.247 551.253 321.162 631.644 322.503 682.477C324.036 733.122 325.76 793.744 326.334 817.09C327.675 862.839 328.25 869.617 331.315 866.605C333.997 863.969 336.104 753.455 338.977 479.146C340.127 352.817 341.851 247.763 342.617 245.88C343.383 243.809 344.533 281.086 345.299 328.719C346.065 376.163 347.023 420.218 347.406 426.43C347.981 432.643 349.13 493.266 350.28 561.043C354.302 813.324 356.218 912.354 357.176 917.437C357.75 920.262 359.283 922.332 360.432 921.956C361.965 921.579 363.114 909.718 364.072 884.679C365.604 837.235 370.777 548.994 372.501 418.9C373.075 362.984 374.416 314.222 375.183 310.645C376.14 306.503 376.715 315.163 376.907 335.12C377.098 352.252 378.056 394.989 379.014 430.196C379.972 465.402 381.696 553.136 382.845 625.055C384.952 772.846 385.91 794.497 389.55 794.497C391.082 794.497 392.423 790.544 393.189 782.825C395.488 758.726 400.852 609.052 404.108 480.087C405.258 431.89 406.982 390.471 407.748 387.835C408.897 384.446 409.472 387.082 409.472 397.249C409.664 413.063 412.537 526.402 415.41 631.644C416.368 669.863 417.901 704.505 418.475 708.27C420.583 720.131 424.414 716.93 425.755 702.622C428.628 670.428 433.8 559.914 436.482 471.615C437.44 436.409 439.164 404.968 440.122 401.955L441.846 396.307L442.037 401.955C442.612 421.724 450.083 540.334 451.041 544.476C451.615 547.488 453.339 549.747 454.68 549.747C457.554 549.747 461.385 538.827 461.385 530.355C461.385 527.531 462.151 525.272 462.918 525.272C463.875 525.272 465.216 535.627 465.791 548.241C468.664 600.203 473.453 619.219 480.541 606.228C482.84 602.086 486.671 566.88 491.077 511.152C497.207 433.02 498.165 422.477 499.697 417.958C501.613 411.745 502.954 423.042 505.444 468.791C508.318 516.612 512.723 564.432 515.214 571.775C517.704 579.494 523.259 580.058 526.324 572.716C529.006 566.127 532.837 541.463 538.967 491.383C541.649 469.168 544.523 449.211 545.48 447.14C547.779 441.869 548.929 454.106 551.419 511.152C554.675 584.389 556.974 621.289 558.123 623.172C558.89 624.302 560.997 625.055 562.912 625.055C567.893 625.055 570.958 613.947 577.28 575.163C582.26 544.664 590.306 506.445 593.562 497.973C597.393 487.995 601.033 493.078 610.803 522.448C618.082 544.475 622.68 551.63 629.001 551.63C638.004 551.63 642.985 538.263 651.988 489.501C654.862 474.439 657.735 461.449 658.693 460.696C660.609 458.436 663.482 471.427 669.229 508.516C674.018 540.145 678.041 555.019 682.255 557.654C690.492 562.926 696.239 555.583 704.859 528.661C708.116 518.118 712.522 507.951 715.395 505.127L719.993 499.856L725.356 506.445C737.425 521.883 742.597 525.272 753.133 525.272C772.289 525.272 791.253 509.457 803.322 483.476C806.004 477.64 812.517 456.554 817.497 436.974C822.669 416.829 829.374 395.931 832.631 389.341C840.293 373.903 855.618 359.03 871.326 351.499C883.394 345.663 884.544 345.475 908.68 345.475C932.817 345.475 933.966 345.663 946.609 351.499C995.841 374.468 1010.97 435.091 978.217 477.828C969.405 489.313 951.973 501.362 937.606 505.692C932.242 507.198 915.96 509.269 901.593 510.21C864.813 512.658 846.806 519.059 830.332 535.815C807.919 558.596 800.448 585.33 800.448 644.258V672.122H809.835H819.221L820.179 631.08C820.754 599.262 821.712 587.966 824.393 579.87C829.757 563.114 836.079 552.571 845.657 544.476C859.449 532.426 871.326 529.037 904.849 527.155C946.418 524.895 965.574 517.365 986.837 495.149C1017.3 463.143 1023.43 421.912 1003.5 381.434C992.393 358.653 973.045 342.086 946.035 332.296C933.583 327.589 928.794 326.836 910.596 326.836C893.164 326.648 887.034 327.589 875.157 331.354C842.975 341.521 816.923 368.632 808.111 401.014C806.961 405.344 803.896 420.971 801.406 435.656C793.744 480.652 781.867 503.998 761.37 514.352C751.409 519.436 747.003 517.741 735.509 504.751C725.165 493.078 721.525 491.007 714.629 493.454C708.307 495.714 703.518 504.939 696.047 528.473C692.216 540.145 688.385 549.747 687.427 549.747C684.554 549.747 681.872 538.827 677.083 507.198C669.42 458.625 665.589 446.199 658.31 446.199C653.138 446.199 650.073 454.671 645.284 481.217C638.004 522.071 632.449 542.216 628.81 542.216C626.511 542.216 622.105 532.426 616.55 514.917C611.186 497.785 604.481 485.735 599.884 484.606C594.137 483.1 590.114 486.488 585.517 496.843C581.302 506.822 573.64 542.781 569.809 572.151C568.276 584.012 565.977 594.555 565.02 595.497C563.487 597.003 562.912 596.814 562.912 594.743C562.721 569.892 555.633 451.847 553.143 433.961C550.844 417.205 549.886 414.193 546.63 414.193C545.097 414.193 543.182 415.699 542.032 417.394C540.308 420.782 533.412 467.285 531.113 491.383C530.539 498.161 528.431 515.105 526.324 529.037C524.409 542.969 522.685 555.207 522.685 556.148C522.685 557.278 522.11 557.278 520.961 556.148C519.237 554.454 516.746 527.908 513.107 470.674C508.126 394.048 506.21 374.656 502.762 371.456C500.464 369.197 496.249 372.774 495.291 378.233C494.142 384.07 492.226 404.968 483.415 511.905C479.009 564.432 478.051 572.528 475.944 570.268C475.561 569.892 474.22 549.935 472.879 526.213C471.729 502.303 470.005 479.899 469.239 476.322C467.132 466.344 462.726 467.85 460.81 479.146C460.044 484.229 458.703 491.572 458.129 495.149L456.979 501.738L455.638 496.09C454.872 492.89 453.148 470.109 451.807 445.257C449.7 400.073 444.911 344.533 442.995 338.32C441.654 334.367 437.248 334.178 435.716 338.132C434.183 342.274 424.988 562.738 424.988 597.568C424.988 602.274 424.222 604.345 423.264 603.216C422.115 602.274 420.583 557.466 419.433 499.856C416.751 370.326 413.686 268.849 412.345 257.364C410.43 244.186 406.407 245.88 405.066 260.188C403.917 275.627 400.66 357.147 398.17 435.844C393.189 595.12 392.231 623.925 391.657 624.49C390.316 625.808 388.592 560.667 385.718 394.425C382.27 201.072 379.588 112.773 376.907 110.326C375.757 109.196 374.608 109.196 373.458 110.326C371.16 112.585 368.095 229.501 365.604 401.014C362.923 590.79 361.39 659.508 359.858 649.53C359.091 644.823 357.942 607.546 357.176 566.691C353.919 364.302 347.789 92.2521 345.107 29.5583C344.341 8.09562 343.383 2.48545e-05 341.659 2.48545e-05C339.935 2.48545e-05 338.977 8.84869 338.02 33.3237Z" fill="#1A1A1A"/>
</svg>
