<svg width="89" height="89" viewBox="0 0 89 89" fill="none" xmlns="http://www.w3.org/2000/svg">
<path d="M33.0341 63.8659L63.8659 44.0454L33.0341 24.225V63.8659ZM44.0455 88.0909C37.9525 88.0909 32.2266 86.934 26.8677 84.6201C21.5089 82.3063 16.8474 79.1688 12.8833 75.2076C8.91921 71.2465 5.78171 66.585 3.47079 61.2232C1.15987 55.8614 0.00294194 50.1355 5.57537e-06 44.0454C-0.00293079 37.9554 1.154 32.2295 3.47079 26.8677C5.78758 21.5059 8.92508 16.8444 12.8833 12.8833C16.8415 8.92214 21.503 5.78464 26.8677 3.47078C32.2325 1.15693 37.9584 0 44.0455 0C50.1325 0 55.8584 1.15693 61.2232 3.47078C66.5879 5.78464 71.2494 8.92214 75.2076 12.8833C79.1658 16.8444 82.3048 21.5059 84.6245 26.8677C86.9443 32.2295 88.0997 37.9554 88.0909 44.0454C88.0821 50.1355 86.9252 55.8614 84.6201 61.2232C82.3151 66.585 79.1776 71.2465 75.2076 75.2076C71.2377 79.1688 66.5762 82.3077 61.2232 84.6245C55.8702 86.9413 50.1443 88.0968 44.0455 88.0909Z" fill="black"/>
</svg>
