<svg width="319" height="76" viewBox="0 0 319 76" fill="none" xmlns="http://www.w3.org/2000/svg">
<path d="M-0.000392578 26.3014V1.98038H17.1633V5.00313H3.47404V26.3014H-0.000392578ZM3.12659 16.4688V13.4807H15.6693V16.4688H3.12659ZM24.7028 26.3014V7.88691H27.8993V12.8901L27.5866 11.6393C28.0962 10.3653 28.9532 9.3925 30.1577 8.72077C31.3621 8.04905 32.8446 7.71319 34.6049 7.71319V10.9444C34.466 10.9212 34.327 10.9097 34.188 10.9097C34.0722 10.9097 33.9564 10.9097 33.8406 10.9097C32.057 10.9097 30.6441 11.4424 29.6018 12.5079C28.5594 13.5734 28.0383 15.1137 28.0383 17.1289V26.3014H24.7028ZM42.1903 26.3014V7.88691H45.5258V26.3014H42.1903ZM43.858 4.34299C43.2095 4.34299 42.6652 4.13453 42.2251 3.71759C41.8081 3.30066 41.5997 2.79108 41.5997 2.18885C41.5997 1.56345 41.8081 1.04228 42.2251 0.625353C42.6652 0.208421 43.2095 -4.51467e-05 43.858 -4.51467e-05C44.5066 -4.51467e-05 45.0394 0.208421 45.4563 0.625353C45.8964 1.01912 46.1164 1.51712 46.1164 2.11936C46.1164 2.74475 45.908 3.2775 45.491 3.71759C45.0741 4.13453 44.5298 4.34299 43.858 4.34299ZM63.5684 26.5099C61.5995 26.5099 59.8623 26.1045 58.3567 25.2938C56.8743 24.4831 55.7162 23.3713 54.8823 21.9584C54.0716 20.5454 53.6662 18.924 53.6662 17.0942C53.6662 15.2643 54.06 13.6429 54.8476 12.2299C55.6583 10.817 56.7585 9.71678 58.1483 8.92924C59.5612 8.11854 61.1479 7.71319 62.9082 7.71319C64.6918 7.71319 66.2668 8.10696 67.6335 8.8945C69.0001 9.68203 70.0656 10.7939 70.8299 12.2299C71.6175 13.6429 72.0112 15.299 72.0112 17.1984C72.0112 17.3374 71.9997 17.4995 71.9765 17.6848C71.9765 17.8701 71.9649 18.0438 71.9417 18.206H56.2721V15.8086H70.2045L68.8495 16.6425C68.8727 15.4612 68.6295 14.4073 68.1199 13.4807C67.6103 12.5542 66.9038 11.8362 66.0005 11.3266C65.1203 10.7939 64.0895 10.5275 62.9082 10.5275C61.7501 10.5275 60.7193 10.7939 59.816 11.3266C58.9126 11.8362 58.2062 12.5658 57.6966 13.5155C57.187 14.442 56.9322 15.5075 56.9322 16.712V17.2679C56.9322 18.4955 57.2102 19.5957 57.7661 20.5686C58.3451 21.5183 59.1443 22.2595 60.1634 22.7922C61.1826 23.325 62.3523 23.5913 63.6726 23.5913C64.7613 23.5913 65.7457 23.406 66.6259 23.0354C67.5292 22.6648 68.3168 22.1089 68.9885 21.3677L70.8299 23.5218C69.9961 24.4947 68.9537 25.2359 67.7029 25.7455C66.4753 26.2551 65.0971 26.5099 63.5684 26.5099ZM80.1173 26.3014V7.88691H83.3137V12.8553L82.7926 11.5351C83.3948 10.3306 84.3213 9.3925 85.5721 8.72077C86.8229 8.04905 88.2822 7.71319 89.9499 7.71319C91.4555 7.71319 92.7758 8.00273 93.9107 8.5818C95.0689 9.16087 95.9722 10.0411 96.6208 11.2224C97.2694 12.4037 97.5936 13.8977 97.5936 15.7044V26.3014H94.2582V16.0866C94.2582 14.303 93.8181 12.9596 92.9379 12.0562C92.0809 11.1529 90.8648 10.7012 89.2897 10.7012C88.1084 10.7012 87.0777 10.9328 86.1975 11.3961C85.3173 11.8593 84.634 12.5426 84.1476 13.446C83.6843 14.3494 83.4527 15.4728 83.4527 16.8162V26.3014H80.1173ZM114.85 26.5099C113.066 26.5099 111.468 26.1161 110.055 25.3286C108.665 24.541 107.565 23.4408 106.754 22.0278C105.944 20.6149 105.538 18.9703 105.538 17.0942C105.538 15.218 105.944 13.585 106.754 12.1952C107.565 10.7823 108.665 9.68203 110.055 8.8945C111.468 8.10696 113.066 7.71319 114.85 7.71319C116.402 7.71319 117.803 8.06063 119.054 8.75552C120.305 9.45041 121.301 10.4927 122.042 11.8825C122.806 13.2723 123.189 15.0095 123.189 17.0942C123.189 19.1788 122.818 20.916 122.077 22.3058C121.359 23.6956 120.374 24.7495 119.123 25.4675C117.873 26.1624 116.448 26.5099 114.85 26.5099ZM115.128 23.5913C116.286 23.5913 117.328 23.325 118.255 22.7922C119.205 22.2595 119.946 21.5067 120.478 20.5338C121.034 19.5378 121.312 18.3913 121.312 17.0942C121.312 15.7739 121.034 14.6389 120.478 13.6892C119.946 12.7164 119.205 11.9636 118.255 11.4308C117.328 10.8981 116.286 10.6317 115.128 10.6317C113.947 10.6317 112.893 10.8981 111.966 11.4308C111.04 11.9636 110.298 12.7164 109.742 13.6892C109.187 14.6389 108.909 15.7739 108.909 17.0942C108.909 18.3913 109.187 19.5378 109.742 20.5338C110.298 21.5067 111.04 22.2595 111.966 22.7922C112.893 23.325 113.947 23.5913 115.128 23.5913ZM121.417 26.3014V21.333L121.625 17.0594L121.278 12.7859V0.521119H124.613V26.3014H121.417ZM134.398 26.3014V0.521119H137.734V26.3014H134.398ZM148.342 33.2503C147.462 33.2503 146.605 33.0997 145.771 32.7986C144.937 32.5206 144.219 32.1037 143.617 31.5478L145.041 29.0462C145.505 29.4863 146.014 29.8221 146.57 30.0538C147.126 30.2854 147.717 30.4012 148.342 30.4012C149.153 30.4012 149.824 30.1928 150.357 29.7758C150.89 29.3589 151.388 28.6177 151.851 27.5522L152.998 25.0159L153.345 24.5989L160.572 7.88691H163.838L154.909 28.1428C154.376 29.44 153.774 30.4591 153.102 31.2003C152.453 31.9415 151.735 32.4627 150.948 32.7638C150.16 33.0881 149.292 33.2503 148.342 33.2503ZM152.72 26.892L144.312 7.88691H147.786L154.943 24.2862L152.72 26.892ZM183.717 26.3014V1.98038H193.202C195.333 1.98038 197.151 2.31624 198.657 2.98797C200.163 3.65969 201.321 4.63253 202.131 5.90649C202.942 7.18044 203.347 8.69761 203.347 10.458C203.347 12.2184 202.942 13.7355 202.131 15.0095C201.321 16.2603 200.163 17.2331 198.657 17.928C197.151 18.5997 195.333 18.9356 193.202 18.9356H185.628L187.191 17.3026V26.3014H183.717ZM187.191 17.6501L185.628 15.9128H193.098C195.321 15.9128 197.001 15.438 198.136 14.4883C199.294 13.5387 199.873 12.1952 199.873 10.458C199.873 8.72077 199.294 7.37733 198.136 6.42765C197.001 5.47797 195.321 5.00313 193.098 5.00313H185.628L187.191 3.26592V17.6501ZM219.572 26.5099C217.603 26.5099 215.866 26.1045 214.36 25.2938C212.878 24.4831 211.719 23.3713 210.886 21.9584C210.075 20.5454 209.67 18.924 209.67 17.0942C209.67 15.2643 210.063 13.6429 210.851 12.2299C211.662 10.817 212.762 9.71678 214.152 8.92924C215.564 8.11854 217.151 7.71319 218.911 7.71319C220.695 7.71319 222.27 8.10696 223.637 8.8945C225.003 9.68203 226.069 10.7939 226.833 12.2299C227.621 13.6429 228.015 15.299 228.015 17.1984C228.015 17.3374 228.003 17.4995 227.98 17.6848C227.98 17.8701 227.968 18.0438 227.945 18.206H212.275V15.8086H226.208L224.853 16.6425C224.876 15.4612 224.633 14.4073 224.123 13.4807C223.614 12.5542 222.907 11.8362 222.004 11.3266C221.124 10.7939 220.093 10.5275 218.911 10.5275C217.753 10.5275 216.723 10.7939 215.819 11.3266C214.916 11.8362 214.209 12.5658 213.7 13.5155C213.19 14.442 212.935 15.5075 212.935 16.712V17.2679C212.935 18.4955 213.213 19.5957 213.769 20.5686C214.348 21.5183 215.148 22.2595 216.167 22.7922C217.186 23.325 218.356 23.5913 219.676 23.5913C220.765 23.5913 221.749 23.406 222.629 23.0354C223.532 22.6648 224.32 22.1089 224.992 21.3677L226.833 23.5218C225.999 24.4947 224.957 25.2359 223.706 25.7455C222.479 26.2551 221.1 26.5099 219.572 26.5099ZM244.007 26.5099C242.154 26.5099 240.51 26.1045 239.074 25.2938C237.638 24.4831 236.503 23.3713 235.669 21.9584C234.835 20.5223 234.418 18.9009 234.418 17.0942C234.418 15.2643 234.835 13.6429 235.669 12.2299C236.503 10.817 237.638 9.71678 239.074 8.92924C240.51 8.11854 242.154 7.71319 244.007 7.71319C245.837 7.71319 247.47 8.11854 248.906 8.92924C250.366 9.71678 251.501 10.817 252.311 12.2299C253.145 13.6197 253.562 15.2411 253.562 17.0942C253.562 18.924 253.145 20.5454 252.311 21.9584C251.501 23.3713 250.366 24.4831 248.906 25.2938C247.47 26.1045 245.837 26.5099 244.007 26.5099ZM244.007 23.5913C245.189 23.5913 246.243 23.325 247.169 22.7922C248.119 22.2595 248.86 21.5067 249.393 20.5338C249.926 19.5378 250.192 18.3913 250.192 17.0942C250.192 15.7739 249.926 14.6389 249.393 13.6892C248.86 12.7164 248.119 11.9636 247.169 11.4308C246.243 10.8981 245.189 10.6317 244.007 10.6317C242.826 10.6317 241.772 10.8981 240.846 11.4308C239.919 11.9636 239.178 12.7164 238.622 13.6892C238.066 14.6389 237.788 15.7739 237.788 17.0942C237.788 18.3913 238.066 19.5378 238.622 20.5338C239.178 21.5067 239.919 22.2595 240.846 22.7922C241.772 23.325 242.826 23.5913 244.007 23.5913ZM271.413 26.5099C269.884 26.5099 268.483 26.1624 267.209 25.4675C265.958 24.7495 264.95 23.6956 264.186 22.3058C263.445 20.916 263.074 19.1788 263.074 17.0942C263.074 15.0095 263.433 13.2723 264.151 11.8825C264.892 10.4927 265.888 9.45041 267.139 8.75552C268.413 8.06063 269.838 7.71319 271.413 7.71319C273.219 7.71319 274.818 8.10696 276.207 8.8945C277.597 9.68203 278.697 10.7823 279.508 12.1952C280.319 13.585 280.724 15.218 280.724 17.0942C280.724 18.9703 280.319 20.6149 279.508 22.0278C278.697 23.4408 277.597 24.541 276.207 25.3286C274.818 26.1161 273.219 26.5099 271.413 26.5099ZM261.649 33.0418V7.88691H264.846V12.8553L264.637 17.1289L264.985 21.4024V33.0418H261.649ZM271.135 23.5913C272.316 23.5913 273.37 23.325 274.296 22.7922C275.246 22.2595 275.987 21.5067 276.52 20.5338C277.076 19.5378 277.354 18.3913 277.354 17.0942C277.354 15.7739 277.076 14.6389 276.52 13.6892C275.987 12.7164 275.246 11.9636 274.296 11.4308C273.37 10.8981 272.316 10.6317 271.135 10.6317C269.977 10.6317 268.923 10.8981 267.973 11.4308C267.046 11.9636 266.305 12.7164 265.749 13.6892C265.217 14.6389 264.95 15.7739 264.95 17.0942C264.95 18.3913 265.217 19.5378 265.749 20.5338C266.305 21.5067 267.046 22.2595 267.973 22.7922C268.923 23.325 269.977 23.5913 271.135 23.5913ZM288.807 26.3014V0.521119H292.142V26.3014H288.807ZM310.185 26.5099C308.216 26.5099 306.479 26.1045 304.973 25.2938C303.491 24.4831 302.333 23.3713 301.499 21.9584C300.688 20.5454 300.283 18.924 300.283 17.0942C300.283 15.2643 300.677 13.6429 301.464 12.2299C302.275 10.817 303.375 9.71678 304.765 8.92924C306.178 8.11854 307.765 7.71319 309.525 7.71319C311.308 7.71319 312.884 8.10696 314.25 8.8945C315.617 9.68203 316.682 10.7939 317.447 12.2299C318.234 13.6429 318.628 15.299 318.628 17.1984C318.628 17.3374 318.616 17.4995 318.593 17.6848C318.593 17.8701 318.582 18.0438 318.558 18.206H302.889V15.8086H316.821L315.466 16.6425C315.489 15.4612 315.246 14.4073 314.737 13.4807C314.227 12.5542 313.521 11.8362 312.617 11.3266C311.737 10.7939 310.706 10.5275 309.525 10.5275C308.367 10.5275 307.336 10.7939 306.433 11.3266C305.529 11.8362 304.823 12.5658 304.313 13.5155C303.804 14.442 303.549 15.5075 303.549 16.712V17.2679C303.549 18.4955 303.827 19.5957 304.383 20.5686C304.962 21.5183 305.761 22.2595 306.78 22.7922C307.799 23.325 308.969 23.5913 310.289 23.5913C311.378 23.5913 312.362 23.406 313.243 23.0354C314.146 22.6648 314.933 22.1089 315.605 21.3677L317.447 23.5218C316.613 24.4947 315.57 25.2359 314.32 25.7455C313.092 26.2551 311.714 26.5099 310.185 26.5099ZM54.5153 68.5793C52.6623 68.5793 50.9482 68.2782 49.3732 67.676C47.8212 67.0506 46.4662 66.182 45.3081 65.0702C44.1731 63.9352 43.2813 62.6149 42.6328 61.1093C41.9842 59.6037 41.6599 57.9476 41.6599 56.1409C41.6599 54.3342 41.9842 52.678 42.6328 51.1725C43.2813 49.6669 44.1847 48.3582 45.3428 47.2463C46.501 46.1114 47.856 45.2428 49.4079 44.6405C50.983 44.0151 52.697 43.7024 54.5501 43.7024C56.4262 43.7024 58.1519 44.0267 59.727 44.6753C61.3252 45.3007 62.6802 46.2388 63.792 47.4896L61.5337 49.6784C60.6071 48.7056 59.5648 47.9876 58.4067 47.5243C57.2485 47.0379 56.0093 46.7947 54.689 46.7947C53.3224 46.7947 52.0485 47.0263 50.8672 47.4896C49.709 47.9528 48.7014 48.6014 47.8444 49.4352C46.9874 50.2691 46.3157 51.2651 45.8292 52.4232C45.366 53.5582 45.1344 54.7974 45.1344 56.1409C45.1344 57.4843 45.366 58.7351 45.8292 59.8933C46.3157 61.0283 46.9874 62.0127 47.8444 62.8465C48.7014 63.6804 49.709 64.329 50.8672 64.7922C52.0485 65.2555 53.3224 65.4871 54.689 65.4871C56.0093 65.4871 57.2485 65.2555 58.4067 64.7922C59.5648 64.3058 60.6071 63.5646 61.5337 62.5686L63.792 64.7575C62.6802 66.0083 61.3252 66.9579 59.727 67.6065C58.1519 68.2551 56.4147 68.5793 54.5153 68.5793ZM78.5038 68.5099C76.6508 68.5099 75.0062 68.1045 73.5701 67.2938C72.134 66.4831 70.999 65.3713 70.1652 63.9584C69.3313 62.5223 68.9144 60.9009 68.9144 59.0942C68.9144 57.2643 69.3313 55.6429 70.1652 54.2299C70.999 52.817 72.134 51.7168 73.5701 50.9292C75.0062 50.1185 76.6508 49.7132 78.5038 49.7132C80.3337 49.7132 81.9667 50.1185 83.4028 50.9292C84.862 51.7168 85.997 52.817 86.8077 54.2299C87.6416 55.6197 88.0585 57.2411 88.0585 59.0942C88.0585 60.924 87.6416 62.5454 86.8077 63.9584C85.997 65.3713 84.862 66.4831 83.4028 67.2938C81.9667 68.1045 80.3337 68.5099 78.5038 68.5099ZM78.5038 65.5913C79.6851 65.5913 80.739 65.325 81.6655 64.7922C82.6152 64.2595 83.3564 63.5067 83.8892 62.5338C84.4219 61.5378 84.6883 60.3913 84.6883 59.0942C84.6883 57.7739 84.4219 56.6389 83.8892 55.6892C83.3564 54.7164 82.6152 53.9636 81.6655 53.4308C80.739 52.8981 79.6851 52.6317 78.5038 52.6317C77.3225 52.6317 76.2686 52.8981 75.3421 53.4308C74.4156 53.9636 73.6744 54.7164 73.1184 55.6892C72.5625 56.6389 72.2846 57.7739 72.2846 59.0942C72.2846 60.3913 72.5625 61.5378 73.1184 62.5338C73.6744 63.5067 74.4156 64.2595 75.3421 64.7922C76.2686 65.325 77.3225 65.5913 78.5038 65.5913ZM96.1458 68.3014V49.8869H99.3422V54.7859L98.8211 53.5351C99.4002 52.3306 100.292 51.3925 101.496 50.7208C102.701 50.0491 104.102 49.7132 105.7 49.7132C107.461 49.7132 108.978 50.1533 110.252 51.0335C111.526 51.8905 112.36 53.1992 112.754 54.9596L111.399 54.4037C111.954 52.9907 112.927 51.8558 114.317 50.9987C115.707 50.1417 117.328 49.7132 119.181 49.7132C120.664 49.7132 121.972 50.0027 123.107 50.5818C124.242 51.1609 125.123 52.0411 125.748 53.2224C126.396 54.4037 126.721 55.8977 126.721 57.7044V68.3014H123.385V58.0866C123.385 56.303 122.968 54.9596 122.135 54.0562C121.301 53.1529 120.131 52.7012 118.625 52.7012C117.514 52.7012 116.541 52.9328 115.707 53.3961C114.873 53.8593 114.224 54.5426 113.761 55.446C113.321 56.3494 113.101 57.4728 113.101 58.8162V68.3014H109.766V58.0866C109.766 56.303 109.349 54.9596 108.515 54.0562C107.704 53.1529 106.534 52.7012 105.006 52.7012C103.917 52.7012 102.956 52.9328 102.122 53.3961C101.288 53.8593 100.639 54.5426 100.176 55.446C99.7129 56.3494 99.4812 57.4728 99.4812 58.8162V68.3014H96.1458ZM136.332 68.3014V49.8869H139.529V54.7859L139.008 53.5351C139.587 52.3306 140.479 51.3925 141.683 50.7208C142.888 50.0491 144.289 49.7132 145.887 49.7132C147.648 49.7132 149.165 50.1533 150.439 51.0335C151.713 51.8905 152.546 53.1992 152.94 54.9596L151.585 54.4037C152.141 52.9907 153.114 51.8558 154.504 50.9987C155.893 50.1417 157.515 49.7132 159.368 49.7132C160.85 49.7132 162.159 50.0027 163.294 50.5818C164.429 51.1609 165.309 52.0411 165.935 53.2224C166.583 54.4037 166.907 55.8977 166.907 57.7044V68.3014H163.572V58.0866C163.572 56.303 163.155 54.9596 162.321 54.0562C161.487 53.1529 160.318 52.7012 158.812 52.7012C157.7 52.7012 156.727 52.9328 155.893 53.3961C155.06 53.8593 154.411 54.5426 153.948 55.446C153.508 56.3494 153.288 57.4728 153.288 58.8162V68.3014H149.952V58.0866C149.952 56.303 149.535 54.9596 148.701 54.0562C147.891 53.1529 146.721 52.7012 145.192 52.7012C144.104 52.7012 143.142 52.9328 142.308 53.3961C141.475 53.8593 140.826 54.5426 140.363 55.446C139.9 56.3494 139.668 57.4728 139.668 58.8162V68.3014H136.332ZM184.267 68.5099C182.692 68.5099 181.302 68.2203 180.098 67.6412C178.916 67.0622 177.99 66.182 177.318 65.0007C176.67 63.7962 176.345 62.2906 176.345 60.4839V49.8869H179.681V60.1017C179.681 61.9084 180.109 63.2635 180.966 64.1668C181.847 65.0702 183.074 65.5218 184.649 65.5218C185.807 65.5218 186.815 65.2902 187.672 64.827C188.529 64.3405 189.189 63.6457 189.652 62.7423C190.116 61.8158 190.347 60.704 190.347 59.4069V49.8869H193.683V68.3014H190.521V63.333L191.042 64.6532C190.44 65.8809 189.537 66.8305 188.332 67.5023C187.128 68.174 185.773 68.5099 184.267 68.5099ZM203.507 68.3014V49.8869H206.703V54.8553L206.182 53.5351C206.785 52.3306 207.711 51.3925 208.962 50.7208C210.213 50.0491 211.672 49.7132 213.34 49.7132C214.845 49.7132 216.166 50.0027 217.3 50.5818C218.459 51.1609 219.362 52.0411 220.011 53.2224C220.659 54.4037 220.983 55.8977 220.983 57.7044V68.3014H217.648V58.0866C217.648 56.303 217.208 54.9596 216.328 54.0562C215.471 53.1529 214.255 52.7012 212.68 52.7012C211.498 52.7012 210.467 52.9328 209.587 53.3961C208.707 53.8593 208.024 54.5426 207.537 55.446C207.074 56.3494 206.842 57.4728 206.842 58.8162V68.3014H203.507ZM230.631 68.3014V49.8869H233.966V68.3014H230.631ZM232.298 46.343C231.65 46.343 231.105 46.1345 230.665 45.7176C230.248 45.3007 230.04 44.7911 230.04 44.1888C230.04 43.5634 230.248 43.0423 230.665 42.6254C231.105 42.2084 231.65 42 232.298 42C232.947 42 233.48 42.2084 233.897 42.6254C234.337 43.0191 234.557 43.5171 234.557 44.1194C234.557 44.7448 234.348 45.2775 233.931 45.7176C233.514 46.1345 232.97 46.343 232.298 46.343ZM250.031 68.5099C248.178 68.5099 246.742 68.0119 245.722 67.0159C244.703 66.0198 244.194 64.5953 244.194 62.7423V45.8566H247.529V62.6033C247.529 63.5993 247.772 64.3637 248.259 64.8964C248.768 65.4292 249.486 65.6956 250.413 65.6956C251.455 65.6956 252.324 65.406 253.019 64.827L254.061 67.2243C253.551 67.6644 252.938 67.9887 252.22 68.1972C251.525 68.4056 250.795 68.5099 250.031 68.5099ZM241.067 52.6317V49.8869H252.81V52.6317H241.067ZM261.01 75.2503C260.13 75.2503 259.273 75.0997 258.439 74.7986C257.605 74.5206 256.887 74.1037 256.285 73.5478L257.709 71.0462C258.172 71.4863 258.682 71.8221 259.238 72.0538C259.794 72.2854 260.385 72.4012 261.01 72.4012C261.821 72.4012 262.492 72.1928 263.025 71.7758C263.558 71.3589 264.056 70.6177 264.519 69.5522L265.666 67.0159L266.013 66.5989L273.24 49.8869H276.506L267.577 70.1428C267.044 71.44 266.442 72.4591 265.77 73.2003C265.121 73.9415 264.403 74.4627 263.616 74.7638C262.828 75.0881 261.96 75.2503 261.01 75.2503ZM265.388 68.892L256.98 49.8869H260.454L267.611 66.2862L265.388 68.892Z" fill="#1A1A1A"/>
</svg>
