<svg width="671" height="516" viewBox="0 0 671 516" fill="none" xmlns="http://www.w3.org/2000/svg">
<g filter="url(#filter0_d_172_4)">
<path d="M-13.8344 18.2546C-15.0936 53.6293 -16.4578 139.436 -17.0874 219.674C-17.6121 292.898 -18.3466 332.708 -19.1861 331.883C-19.396 331.676 -20.0256 306.306 -20.6552 275.366C-23.3836 140.364 -25.0625 71.2651 -25.7971 66.2116C-26.2168 63.2207 -26.9514 60.6424 -27.581 60.5392C-28.2106 60.4361 -28.8403 76.0092 -29.26 104.68C-30.0995 158.722 -31.1489 253.605 -31.3587 287.226C-31.6735 327.448 -33.0377 300.015 -34.4019 227.409C-35.7661 153.565 -37.0253 113.55 -37.9697 112.725C-38.2845 112.312 -39.124 112.518 -39.6487 113.034C-40.803 114.168 -42.1672 155.112 -43.4264 219.983C-43.7412 241.435 -44.2659 258.761 -44.4758 258.555C-44.7906 258.349 -45.6301 239.888 -46.5745 217.508C-47.414 195.128 -48.3584 175.842 -48.6732 174.501C-48.988 173.161 -49.7226 172.232 -50.4571 172.542C-51.7164 172.954 -52.2411 185.434 -54.8645 269.178C-55.8089 299.189 -56.7533 298.571 -58.4323 266.599C-59.6915 243.704 -61.4755 224.005 -62.315 222.561C-63.3643 220.911 -65.6729 221.736 -66.3025 224.005C-66.6173 225.346 -67.8766 236.794 -69.0309 249.582C-72.179 285.06 -72.3888 286.917 -73.2283 285.988C-73.6481 285.576 -74.8024 277.738 -75.7468 268.662C-76.6912 259.586 -77.8455 250.82 -78.2653 249.17C-79.3146 245.56 -81.2035 244.529 -82.043 247.21C-82.9874 250.201 -86.6602 286.195 -87.4997 299.911C-88.2342 313.216 -90.0182 318.269 -90.0182 307.131C-90.0182 296.714 -92.0119 246.488 -93.1662 227.409C-94.5304 204.719 -95.16 200.078 -96.944 200.078C-99.0427 200.078 -99.8822 206.473 -102.086 243.91C-104.814 289.289 -105.654 300.324 -106.178 300.84C-106.808 301.562 -107.543 296.714 -108.907 282.069C-111.215 256.802 -112.684 249.582 -115.308 249.582C-115.832 249.582 -116.777 250.717 -117.302 252.161C-118.456 255.048 -122.548 278.769 -122.548 282.276C-122.548 287.226 -124.437 284.338 -126.116 276.706C-128.53 265.671 -130.838 263.196 -132.937 269.384C-133.567 271.24 -134.931 278.769 -136.085 286.092C-137.24 293.311 -138.394 299.499 -138.709 299.808C-139.338 300.427 -139.968 298.055 -141.962 289.082C-143.746 280.316 -146.159 274.334 -147.628 274.334C-149.202 274.334 -151.616 278.357 -152.98 283.307C-153.61 285.782 -154.344 287.742 -154.659 287.742C-154.974 287.742 -156.548 286.71 -158.332 285.37C-161.27 283.307 -162.844 283.101 -179.004 282.791C-195.899 282.482 -200.201 283.101 -198.732 285.576C-198.208 286.298 -192.121 286.71 -180.368 286.71H-162.634L-159.486 289.907C-155.393 294.033 -152.98 293.517 -150.252 287.742C-147.523 282.379 -147.628 282.276 -144.585 296.508C-142.276 307.028 -141.227 309.4 -138.709 309.4C-136.505 309.4 -135.351 305.687 -133.042 291.558C-131.888 284.751 -130.733 278.975 -130.524 278.666C-130.209 278.46 -129.684 279.594 -129.369 281.141C-127.9 287.845 -125.067 295.374 -123.913 295.683C-121.709 296.405 -120.45 292.176 -118.351 278.253C-117.197 270.828 -116.147 264.537 -115.832 264.33C-115.308 263.712 -113.314 277.841 -112.055 291.867C-110.481 309.09 -108.907 319.404 -107.333 321.363C-106.073 323.116 -105.968 323.013 -104.919 321.157C-103.345 318.269 -101.666 303.212 -100.512 282.069C-99.0427 255.358 -98.2032 246.488 -97.2588 245.87C-96.7341 245.56 -96.3143 247.623 -96.3143 250.511C-96.3143 258.246 -93.2712 326.314 -92.5366 334.874C-91.907 342.196 -90.8576 344.671 -88.8639 342.712C-87.6046 341.474 -86.2404 330.851 -83.8269 302.696C-82.5677 289.082 -81.3084 275.881 -80.9936 273.303C-80.364 269.178 -80.1541 268.971 -79.5245 271.344C-79.1048 272.787 -78.4752 277.635 -78.0554 282.172C-77.2159 291.454 -75.432 304.965 -74.6974 307.543C-73.858 310.122 -71.4444 309.812 -70.7099 307.028C-70.3951 305.79 -69.2408 294.548 -67.9815 282.069C-66.8272 269.59 -65.568 256.389 -65.2532 252.78C-64.3087 243.188 -63.1544 246.901 -62.4199 261.443C-60.0064 308.162 -57.3829 340.752 -56.0188 342.196C-55.599 342.505 -54.9694 342.299 -54.4447 341.784C-53.1855 340.546 -51.1917 304.449 -51.0868 280.832C-50.772 243.394 -49.6177 248.757 -48.7782 290.836C-47.8337 342.505 -46.4696 378.396 -45.5251 379.324C-43.1116 381.593 -42.6919 372.208 -41.2227 290.836C-40.9079 274.128 -40.3833 248.551 -39.9635 234.112C-39.229 209.464 -39.124 208.639 -38.4944 220.189C-38.1796 226.996 -37.445 256.492 -37.0253 285.679C-35.871 366.535 -33.0377 451.002 -31.5686 451.414C-30.834 451.724 -30.2044 449.661 -29.7847 445.329C-28.8403 435.841 -27.0563 319.919 -27.0563 269.178C-27.0563 244.529 -26.6366 226.068 -26.1119 226.893C-25.5872 227.718 -24.8527 249.789 -24.5379 275.881C-24.1181 301.974 -23.0688 346.012 -22.3342 373.858C-21.4947 401.601 -20.5503 434.81 -20.2355 447.598C-19.5009 472.66 -19.1861 476.372 -17.5071 474.722C-16.038 473.278 -14.8837 412.739 -13.3097 262.474C-12.6801 193.272 -11.7356 135.723 -11.3159 134.692C-10.8961 133.558 -10.2665 153.978 -9.84678 180.071C-9.42703 206.06 -8.90235 230.193 -8.69248 233.597C-8.37767 237 -7.74805 270.209 -7.11843 307.337C-4.91477 445.536 -3.86541 499.784 -3.34072 502.568C-3.02592 504.115 -2.18642 505.25 -1.55681 505.043C-0.717315 504.837 -0.0876972 498.34 0.436985 484.623C1.27648 458.633 4.10976 300.736 5.05418 229.471C5.36899 198.841 6.10355 172.129 6.52329 170.17C7.04797 167.901 7.36278 172.645 7.46772 183.577C7.57266 192.962 8.09734 216.374 8.62202 235.659C9.1467 254.945 10.0911 303.005 10.7207 342.402C11.875 423.362 12.3997 435.222 14.3935 435.222C15.233 435.222 15.9676 433.056 16.3873 428.828C17.6466 415.627 20.5848 333.636 22.3687 262.99C22.9983 236.588 23.9427 213.898 24.3625 212.454C24.9921 210.598 25.3069 212.042 25.3069 217.611C25.4118 226.274 26.9859 288.361 28.5599 346.012C29.0846 366.948 29.9241 385.925 30.2389 387.987C31.3932 394.485 33.4919 392.731 34.2265 384.893C35.8005 367.257 38.6338 306.718 40.1029 258.349C40.6276 239.063 41.572 221.84 42.0967 220.189L43.0412 217.095L43.1461 220.189C43.4609 231.018 47.5534 295.992 48.0781 298.261C48.3929 299.911 49.3373 301.149 50.0719 301.149C51.6459 301.149 53.7447 295.167 53.7447 290.526C53.7447 288.979 54.1644 287.742 54.5842 287.742C55.1088 287.742 55.8434 293.414 56.1582 300.324C57.7322 328.789 60.3557 339.205 64.2383 332.089C65.4975 329.82 67.5963 310.534 70.0098 280.007C73.3678 237.206 73.8924 231.431 74.7319 228.956C75.7813 225.552 76.5159 231.74 77.88 256.802C79.4541 282.998 81.8676 309.193 83.2318 313.216C84.596 317.444 87.6391 317.753 89.3181 313.731C90.7872 310.122 92.8859 296.611 96.2439 269.178C97.713 257.008 99.287 246.076 99.8117 244.941C101.071 242.054 101.701 248.757 103.065 280.007C104.849 320.126 106.108 340.34 106.738 341.371C107.157 341.99 108.312 342.402 109.361 342.402C112.089 342.402 113.768 336.317 117.231 315.072C119.96 298.364 124.367 277.428 126.151 272.787C128.249 267.321 130.243 270.106 135.595 286.195C139.583 298.261 142.101 302.18 145.564 302.18C150.496 302.18 153.224 294.858 158.156 268.146C159.73 259.896 161.304 252.78 161.829 252.367C162.878 251.129 164.453 258.246 167.601 278.563C170.224 295.889 172.428 304.037 174.736 305.481C179.249 308.368 182.397 304.346 187.119 289.598C188.903 283.823 191.316 278.253 192.89 276.706L195.409 273.819L198.347 277.428C204.958 285.885 207.791 287.742 213.563 287.742C224.056 287.742 234.445 279.079 241.056 264.846C242.525 261.649 246.093 250.098 248.821 239.372C251.655 228.337 255.327 216.889 257.111 213.28C261.309 204.823 269.704 196.675 278.308 192.55C284.919 189.353 285.549 189.249 298.771 189.249C311.993 189.249 312.623 189.353 319.548 192.55C346.517 205.132 354.807 238.341 336.863 261.752C332.036 268.043 322.487 274.644 314.616 277.016C311.678 277.841 302.759 278.975 294.888 279.491C274.741 280.832 264.877 284.338 255.852 293.517C243.575 305.996 239.482 320.641 239.482 352.922V368.186H244.624H249.766L250.29 345.703C250.605 328.273 251.13 322.085 252.599 317.65C255.537 308.471 259 302.696 264.247 298.261C271.802 291.661 278.308 289.804 296.672 288.773C319.443 287.535 329.937 283.41 341.585 271.24C358.27 253.708 361.628 231.122 350.715 208.948C344.628 196.469 334.03 187.393 319.234 182.03C312.413 179.452 309.789 179.039 299.82 179.039C290.271 178.936 286.913 179.452 280.407 181.514C262.778 187.084 248.507 201.935 243.679 219.674C243.05 222.046 241.371 230.606 240.007 238.65C235.809 263.299 229.303 276.088 218.075 281.76C212.618 284.545 210.205 283.616 203.909 276.5C198.242 270.106 196.248 268.971 192.471 270.312C189.008 271.55 186.384 276.603 182.292 289.495C180.193 295.889 178.094 301.149 177.57 301.149C175.996 301.149 174.526 295.167 171.903 277.841C167.706 251.233 165.607 244.426 161.619 244.426C158.786 244.426 157.107 249.067 154.484 263.609C150.496 285.988 147.453 297.024 145.459 297.024C144.2 297.024 141.786 291.661 138.743 282.069C135.805 272.684 132.132 266.084 129.614 265.465C126.466 264.64 124.262 266.496 121.743 272.169C119.435 277.635 115.237 297.333 113.139 313.422C112.299 319.919 111.04 325.695 110.515 326.21C109.676 327.035 109.361 326.932 109.361 325.798C109.256 312.184 105.373 247.52 104.009 237.722C102.75 228.543 102.225 226.893 100.441 226.893C99.6019 226.893 98.5525 227.718 97.9229 228.646C96.9784 230.503 93.2007 255.977 91.9415 269.178C91.6267 272.891 90.4724 282.172 89.3181 289.804C88.2687 297.436 87.3243 304.14 87.3243 304.656C87.3243 305.274 87.0095 305.274 86.3799 304.656C85.4354 303.727 84.0713 289.186 82.0775 257.833C79.3491 215.858 78.2998 205.235 76.4109 203.482C75.1517 202.244 72.8431 204.204 72.3184 207.195C71.6888 210.392 70.6394 221.84 65.8123 280.419C63.3988 309.193 62.8741 313.628 61.7198 312.391C61.51 312.184 60.7754 301.252 60.0408 288.257C59.4112 275.159 58.4668 262.887 58.0471 260.927C56.8928 255.461 54.4792 256.286 53.4299 262.474C53.0101 265.259 52.2756 269.281 51.9607 271.24L51.3311 274.85L50.5966 271.756C50.1768 270.003 49.2324 257.524 48.4978 243.91C47.3435 219.158 44.7201 188.734 43.6708 185.33C42.9362 183.165 40.5227 183.061 39.6832 185.227C38.8437 187.496 33.8068 308.265 33.8068 327.345C33.8068 329.923 33.387 331.058 32.8623 330.439C32.2327 329.923 31.3932 305.377 30.7636 273.819C29.2945 202.863 27.6155 147.274 26.881 140.983C25.8316 133.764 23.6279 134.692 22.8934 142.53C22.2638 150.987 20.4798 195.644 19.1157 238.753C16.3873 326.004 15.8626 341.784 15.5478 342.093C14.8133 342.815 13.8688 307.131 12.2948 216.064C10.4059 110.146 8.93683 61.7768 7.46772 60.4361C6.8381 59.8173 6.20848 59.8173 5.57887 60.4361C4.31963 61.6737 2.64065 125.719 1.27648 219.674C-0.192634 323.632 -1.03212 361.276 -1.87162 355.81C-2.29136 353.231 -2.92098 332.811 -3.34072 310.431C-5.12464 199.563 -8.48261 50.5353 -9.95171 16.192C-10.3715 4.43477 -10.8961 4.35456e-05 -11.8406 4.35456e-05C-12.785 4.35456e-05 -13.3097 4.8473 -13.8344 18.2546Z" fill="black"/>
<path d="M466.148 210.599C466.043 211.527 466.043 259.794 466.043 289.496L466.148 324.871H471.395H476.642V267.632V210.393H471.395C468.561 210.393 466.148 210.496 466.148 210.599Z" fill="black"/>
<path d="M525.435 245.664C517.564 246.695 508.855 250.821 505.497 255.049C499.306 263.093 499.725 273.2 506.651 279.801C511.373 284.236 515.256 285.783 532.57 289.805C547.471 293.208 551.039 294.652 554.187 298.674C558.385 303.934 555.971 311.05 548.731 314.66C543.169 317.548 531.416 318.373 523.861 316.62C517.879 315.176 511.268 310.225 508.54 305.172L507.071 302.387L502.873 303.934C497.732 305.997 497.522 307.75 502.139 313.732C508.75 322.189 519.978 326.933 533.725 326.933C554.292 326.933 566.78 318.373 566.885 304.244C566.885 292.693 558.49 285.886 538.552 281.657C517.879 277.119 512.318 273.922 512.318 266.394C512.318 258.246 523.966 252.574 537.293 254.224C545.373 255.255 547.891 256.287 552.928 261.134C557.125 265.156 557.335 265.259 561.008 264.022C565.206 262.681 565.415 262.062 563.212 257.834C558.595 248.964 541.595 243.498 525.435 245.664Z" fill="black"/>
<path d="M609.383 247.727C604.451 249.48 601.618 251.337 596.162 256.7C586.927 265.775 584.304 272.067 584.304 285.68C584.199 297.128 586.193 303.522 592.069 311.154C606.655 330.234 638.976 332.4 656.185 315.486C660.802 310.948 660.697 309.607 655.031 307.338C652.093 306.204 651.673 306.307 647.266 310.123C635.723 320.127 616.729 320.127 605.186 310.226C599.834 305.585 595.217 297.437 595.217 292.693V289.805L630.161 289.599L665 289.29L664.895 283.102C664.685 270.829 658.704 258.659 649.679 252.162C640.235 245.252 622.501 243.292 609.383 247.727ZM638.556 256.906C647.056 261.134 652.198 267.735 653.562 276.295L654.296 280.523H624.704H595.217V278.151C595.322 274.748 598.68 268.044 602.563 263.61C606.34 259.381 612.532 255.875 618.303 254.637C623.97 253.399 633.624 254.431 638.556 256.906Z" fill="black"/>
<path d="M371.39 247.109C370.235 248.243 370.55 293.622 371.81 301.15C374.538 318.064 387.865 328.068 405.599 326.624C413.574 325.902 419.87 323.427 425.222 318.683C427.216 316.93 429.105 315.589 429.629 315.589C430.049 315.589 430.469 317.652 430.469 320.23V324.871H435.191H439.913V285.577V246.387L435.191 246.696L430.364 247.005L430.154 271.757C429.839 294.55 429.629 296.922 427.531 302.285C426.271 305.379 423.963 309.195 422.284 310.742C412.42 320.024 394.371 319.817 387.235 310.329C382.303 303.832 381.883 301.15 381.464 273.304L381.149 247.005L376.637 246.696C374.223 246.49 371.81 246.696 371.39 247.109Z" fill="black"/>
</g>
<defs>
<filter id="filter0_d_172_4" x="-204.36" y="0" width="874.721" height="515.788" filterUnits="userSpaceOnUse" color-interpolation-filters="sRGB">
<feFlood flood-opacity="0" result="BackgroundImageFix"/>
<feColorMatrix in="SourceAlpha" type="matrix" values="0 0 0 0 0 0 0 0 0 0 0 0 0 0 0 0 0 0 127 0" result="hardAlpha"/>
<feOffset dy="5.36041"/>
<feGaussianBlur stdDeviation="2.68021"/>
<feComposite in2="hardAlpha" operator="out"/>
<feColorMatrix type="matrix" values="0 0 0 0 0 0 0 0 0 0 0 0 0 0 0 0 0 0 0.25 0"/>
<feBlend mode="normal" in2="BackgroundImageFix" result="effect1_dropShadow_172_4"/>
<feBlend mode="normal" in="SourceGraphic" in2="effect1_dropShadow_172_4" result="shape"/>
</filter>
</defs>
</svg>
