<svg width="900" height="1420" viewBox="0 0 900 1420" fill="none" xmlns="http://www.w3.org/2000/svg">
<g clip-path="url(#clip0_172_10)">
<g filter="url(#filter1_d_172_10)">
<path d="M489.618 51.319C485.358 150.766 480.742 391.988 478.611 617.555C476.836 823.407 474.35 935.32 471.51 933.001C470.8 932.421 468.669 861.098 466.539 774.118C457.307 394.598 451.626 200.344 449.141 186.137C447.721 177.729 445.235 170.481 443.105 170.191C440.974 169.901 438.844 213.681 437.424 294.282C434.583 446.206 431.032 712.943 430.322 807.46C429.257 920.534 424.641 843.412 420.025 639.3C415.409 431.709 411.149 319.216 407.953 316.896C406.888 315.736 404.047 316.316 402.272 317.766C398.366 320.955 393.75 436.058 389.49 618.425C388.424 678.731 386.649 727.439 385.939 726.859C384.874 726.28 382.033 674.382 378.838 611.467C375.997 548.551 372.802 494.334 371.736 490.565C370.671 486.796 368.186 484.187 365.7 485.057C361.439 486.216 359.664 521.298 350.787 756.722C347.592 841.092 344.396 839.353 338.715 749.474C334.454 685.109 328.418 629.732 325.578 625.673C322.027 621.034 314.216 623.354 312.085 629.732C311.02 633.501 306.759 665.684 302.854 701.635C292.202 801.372 291.491 806.591 288.651 803.981C287.231 802.821 283.325 780.787 280.129 755.273C276.934 729.759 273.028 705.115 271.608 700.476C268.057 690.328 261.666 687.429 258.825 694.967C255.63 703.375 243.202 804.561 240.362 843.122C237.877 880.523 231.84 894.73 231.84 863.417C231.84 834.134 225.094 692.937 221.188 639.3C216.573 575.515 214.442 562.468 208.406 562.468C201.305 562.468 198.464 580.444 191.008 685.689C181.776 813.259 178.936 844.282 177.16 845.731C175.03 847.761 172.544 834.134 167.929 792.964C160.117 721.931 155.146 701.635 146.269 701.635C144.494 701.635 141.299 704.825 139.523 708.884C135.617 717.002 121.77 783.686 121.77 793.544C121.77 807.46 115.379 799.342 109.698 777.887C101.531 746.865 93.7197 739.906 86.6184 757.302C84.488 762.521 79.8721 783.686 75.9664 804.271C72.0607 824.566 68.155 841.962 67.0898 842.832C64.9594 844.572 62.829 837.903 56.0827 812.679C50.0466 788.035 41.8801 771.219 36.9092 771.219C31.5832 771.219 23.4167 782.526 18.8008 796.443C16.6704 803.401 14.1849 808.91 13.1197 808.91C12.0545 808.91 6.72856 806.011 0.692436 802.242C-9.24941 796.443 -14.5754 795.863 -69.2556 794.993C-126.421 794.124 -140.979 795.863 -136.008 802.821C-134.233 804.851 -113.639 806.011 -73.8714 806.011H-13.8653L-3.21329 814.999C10.6343 826.596 18.8008 825.146 28.0325 808.91C37.2642 793.834 36.9091 793.544 47.2061 833.554C55.0175 863.127 58.5682 869.796 67.0898 869.796C74.5461 869.796 78.4519 859.358 86.2633 819.637C90.1691 800.502 94.0748 784.266 94.7849 783.396C95.8501 782.816 97.6254 786.005 98.6906 790.354C103.662 809.2 113.248 830.365 117.154 831.235C124.61 833.264 128.871 821.377 135.973 782.236C139.878 761.361 143.429 743.675 144.494 743.096C146.269 741.356 153.016 781.077 157.277 820.507C162.603 868.926 167.928 897.919 173.254 903.428C177.515 908.357 177.87 908.067 181.421 902.848C186.747 894.73 192.428 852.4 196.334 792.964C201.305 717.872 204.145 692.937 207.341 691.198C209.116 690.328 210.536 696.127 210.536 704.245C210.536 725.99 220.833 917.344 223.319 941.409C225.449 961.994 229 968.952 235.746 963.444C240.007 959.964 244.623 930.101 252.789 850.95C257.05 812.679 261.311 775.568 262.376 768.32C264.506 756.722 265.217 756.143 267.347 762.811C268.767 766.87 270.898 780.497 272.318 793.254C275.158 819.348 281.195 857.329 283.68 864.577C286.521 871.825 294.687 870.955 297.173 863.127C298.238 859.648 302.143 828.045 306.404 792.964C310.31 757.882 314.571 720.771 315.636 710.623C318.832 683.66 322.737 694.097 325.223 734.978C333.389 866.316 342.266 957.935 346.882 961.994C348.302 962.864 350.432 962.284 352.208 960.834C356.469 957.355 363.215 855.879 363.57 789.485C364.635 684.239 368.541 699.316 371.381 817.608C374.577 962.864 379.193 1063.76 382.388 1066.37C390.555 1072.75 391.975 1046.36 396.946 817.608C398.011 770.639 399.787 698.736 401.207 658.146C403.692 588.852 404.047 586.533 406.178 619.005C407.243 638.14 409.728 721.061 411.149 803.111C415.054 1030.42 424.641 1267.87 429.612 1269.03C432.098 1269.9 434.228 1264.1 435.648 1251.93C438.844 1225.25 444.88 899.369 444.88 756.722C444.88 687.429 446.3 635.531 448.076 637.85C449.851 640.17 452.336 702.215 453.402 775.568C454.822 848.921 458.372 972.721 460.858 1051C463.698 1128.99 466.894 1222.35 467.959 1258.3C470.445 1328.76 471.51 1339.19 477.191 1334.56C482.162 1330.5 486.068 1160.31 491.394 737.877C493.524 543.333 496.72 381.551 498.14 378.652C499.56 375.462 501.691 432.869 503.111 506.222C504.531 579.284 506.306 647.128 507.017 656.696C508.082 666.264 510.212 759.622 512.342 863.997C519.799 1252.51 523.35 1405.01 525.125 1412.84C526.19 1417.19 529.031 1420.38 531.161 1419.8C534.002 1419.22 536.132 1400.95 537.907 1362.39C540.748 1289.33 550.335 845.441 553.53 645.099C554.595 558.989 557.081 483.897 558.501 478.388C560.276 472.01 561.342 485.346 561.697 516.079C562.052 542.463 563.827 608.277 565.602 662.495C567.378 716.712 570.573 851.82 572.704 962.574C576.609 1190.17 578.385 1223.51 585.131 1223.51C587.972 1223.51 590.457 1217.42 591.877 1205.54C596.138 1168.43 606.08 937.93 612.116 739.326C614.246 665.104 617.442 601.319 618.862 597.26C620.993 592.041 622.058 596.1 622.058 611.757C622.413 636.111 627.739 810.65 633.065 972.721C634.84 1031.58 637.681 1084.92 638.746 1090.72C642.652 1108.99 649.753 1104.06 652.239 1082.03C657.565 1032.45 667.151 862.257 672.122 726.28C673.898 672.062 677.093 623.644 678.869 619.005L682.064 610.307L682.419 619.005C683.484 649.448 697.332 832.105 699.107 838.483C700.172 843.122 703.368 846.601 705.854 846.601C711.18 846.601 718.281 829.785 718.281 816.738C718.281 812.389 719.701 808.91 721.121 808.91C722.897 808.91 725.382 824.856 726.447 844.282C731.773 924.303 740.65 953.586 753.787 933.581C758.048 927.202 765.15 872.985 773.316 787.165C784.678 666.844 786.454 650.607 789.294 643.649C792.845 634.081 795.33 651.477 799.946 721.931C805.272 795.573 813.439 869.216 818.054 880.523C822.67 892.41 832.967 893.28 838.648 881.973C843.619 871.825 850.72 833.844 862.083 756.722C867.053 722.51 872.379 691.778 874.155 688.588C878.416 680.47 880.546 699.316 885.162 787.165C891.198 899.949 895.459 956.775 897.589 959.674C899.009 961.414 902.915 962.574 906.466 962.574C915.698 962.574 921.379 945.468 933.096 885.742C942.327 838.773 957.24 779.917 963.276 766.87C970.378 751.504 977.124 759.332 995.232 804.561C1008.72 838.483 1017.25 849.5 1028.96 849.5C1045.65 849.5 1054.88 828.915 1071.57 753.823C1076.9 730.628 1082.22 710.623 1084 709.464C1087.55 705.984 1092.88 725.99 1103.53 783.106C1112.4 831.815 1119.86 854.719 1127.67 858.778C1142.94 866.896 1153.59 855.589 1169.57 814.129C1175.61 797.893 1183.77 782.236 1189.1 777.887L1197.62 769.769L1207.56 779.917C1229.93 803.691 1239.52 808.91 1259.05 808.91C1294.55 808.91 1329.7 784.556 1352.07 744.545C1357.04 735.557 1369.12 703.085 1378.35 672.932C1387.94 641.909 1400.36 609.727 1406.4 599.579C1420.6 575.805 1449.01 552.9 1478.12 541.303C1500.49 532.315 1502.62 532.025 1547.36 532.025C1592.1 532.025 1594.23 532.315 1617.66 541.303C1708.91 576.675 1736.97 670.033 1676.25 735.847C1659.92 753.533 1627.6 772.089 1600.97 778.757C1591.03 781.077 1560.85 784.266 1534.22 785.715C1466.05 789.485 1432.67 799.342 1402.14 825.146C1360.6 860.228 1346.75 901.398 1346.75 992.147V1035.06H1364.15H1381.54L1383.32 971.852C1384.38 922.853 1386.16 905.457 1391.13 892.99C1401.07 867.186 1412.79 850.95 1430.54 838.483C1456.11 819.927 1478.12 814.709 1540.26 811.809C1617.31 808.33 1652.81 796.733 1692.23 762.521C1748.68 713.233 1760.04 649.738 1723.12 587.402C1702.52 552.321 1666.66 526.807 1616.6 511.73C1593.52 504.482 1584.64 503.322 1550.91 503.322C1518.6 503.032 1507.24 504.482 1485.22 510.281C1425.57 525.937 1377.28 567.687 1360.95 617.555C1358.82 624.224 1353.14 648.288 1348.52 670.903C1334.32 740.196 1312.31 776.148 1274.31 792.094C1255.85 799.922 1247.68 797.313 1226.38 777.307C1207.21 759.332 1200.46 756.143 1187.68 759.912C1175.96 763.391 1167.08 777.597 1153.24 813.839C1146.14 831.815 1139.03 846.601 1137.26 846.601C1131.93 846.601 1126.96 829.785 1118.09 781.077C1103.88 706.274 1096.78 687.139 1083.29 687.139C1073.7 687.139 1068.02 700.186 1059.14 741.066C1045.65 803.981 1035.35 835.004 1028.61 835.004C1024.35 835.004 1016.18 819.927 1005.88 792.964C995.942 766.58 983.515 748.024 974.993 746.285C964.342 743.965 956.885 749.184 948.364 765.13C940.552 780.497 926.349 835.874 919.248 881.103C916.408 899.369 912.147 915.605 910.372 917.055C907.531 919.374 906.466 919.084 906.466 915.895C906.111 877.624 892.973 695.837 888.357 668.293C884.097 642.489 882.321 637.85 876.285 637.85C873.445 637.85 869.894 640.17 867.764 642.779C864.568 647.998 851.786 719.611 847.525 756.722C846.46 767.16 842.554 793.254 838.648 814.709C835.098 836.164 831.902 855.009 831.902 856.459C831.902 858.198 830.837 858.198 828.706 856.459C825.511 853.849 820.895 812.969 814.149 724.83C804.917 606.828 801.366 576.965 794.975 572.036C790.714 568.557 782.903 574.065 781.127 582.473C778.997 591.461 775.446 623.644 759.113 788.325C750.947 869.216 749.172 881.683 745.266 878.204C744.556 877.624 742.07 846.891 739.585 810.36C737.454 773.538 734.259 739.037 732.838 733.528C728.933 718.161 720.766 720.481 717.216 737.877C715.795 745.705 713.31 757.012 712.245 762.521L710.114 772.669L707.629 763.971C706.209 759.042 703.013 723.96 700.527 685.689C696.622 616.106 687.745 530.576 684.194 521.008C681.709 514.919 673.543 514.63 670.702 520.718C667.861 527.097 650.818 866.606 650.818 920.244C650.818 927.492 649.398 930.681 647.623 928.942C645.492 927.492 642.652 858.488 640.521 769.769C635.55 570.296 629.869 414.023 627.384 396.337C623.833 376.042 616.377 378.652 613.891 400.686C611.761 424.461 605.725 550.001 601.109 671.193C591.877 916.475 590.102 960.834 589.037 961.704C586.551 963.733 583.356 863.417 578.03 607.408C571.639 309.648 566.668 173.67 561.697 169.901C559.566 168.161 557.436 168.161 555.305 169.901C551.045 173.38 545.364 353.428 540.748 617.555C535.777 909.806 532.936 1015.63 530.096 1000.26C528.676 993.017 526.545 935.61 525.125 872.695C519.089 561.019 507.727 142.068 502.756 45.5204C501.335 12.4682 499.56 0.00113111 496.364 0.00113111C493.169 0.00113111 491.394 13.6279 489.618 51.319Z" fill="white" fill-opacity="0.1" shape-rendering="crispEdges"/>
<path d="M489.618 51.319C485.358 150.766 480.742 391.988 478.611 617.555C476.836 823.407 474.35 935.32 471.51 933.001C470.8 932.421 468.669 861.098 466.539 774.118C457.307 394.598 451.626 200.344 449.141 186.137C447.721 177.729 445.235 170.481 443.105 170.191C440.974 169.901 438.844 213.681 437.424 294.282C434.583 446.206 431.032 712.943 430.322 807.46C429.257 920.534 424.641 843.412 420.025 639.3C415.409 431.709 411.149 319.216 407.953 316.896C406.888 315.736 404.047 316.316 402.272 317.766C398.366 320.955 393.75 436.058 389.49 618.425C388.424 678.731 386.649 727.439 385.939 726.859C384.874 726.28 382.033 674.382 378.838 611.467C375.997 548.551 372.802 494.334 371.736 490.565C370.671 486.796 368.186 484.187 365.7 485.057C361.439 486.216 359.664 521.298 350.787 756.722C347.592 841.092 344.396 839.353 338.715 749.474C334.454 685.109 328.418 629.732 325.578 625.673C322.027 621.034 314.216 623.354 312.085 629.732C311.02 633.501 306.759 665.684 302.854 701.635C292.202 801.372 291.491 806.591 288.651 803.981C287.231 802.821 283.325 780.787 280.129 755.273C276.934 729.759 273.028 705.115 271.608 700.476C268.057 690.328 261.666 687.429 258.825 694.967C255.63 703.375 243.202 804.561 240.362 843.122C237.877 880.523 231.84 894.73 231.84 863.417C231.84 834.134 225.094 692.937 221.188 639.3C216.573 575.515 214.442 562.468 208.406 562.468C201.305 562.468 198.464 580.444 191.008 685.689C181.776 813.259 178.936 844.282 177.16 845.731C175.03 847.761 172.544 834.134 167.929 792.964C160.117 721.931 155.146 701.635 146.269 701.635C144.494 701.635 141.299 704.825 139.523 708.884C135.617 717.002 121.77 783.686 121.77 793.544C121.77 807.46 115.379 799.342 109.698 777.887C101.531 746.865 93.7197 739.906 86.6184 757.302C84.488 762.521 79.8721 783.686 75.9664 804.271C72.0607 824.566 68.155 841.962 67.0898 842.832C64.9594 844.572 62.829 837.903 56.0827 812.679C50.0466 788.035 41.8801 771.219 36.9092 771.219C31.5832 771.219 23.4167 782.526 18.8008 796.443C16.6704 803.401 14.1849 808.91 13.1197 808.91C12.0545 808.91 6.72856 806.011 0.692436 802.242C-9.24941 796.443 -14.5754 795.863 -69.2556 794.993C-126.421 794.124 -140.979 795.863 -136.008 802.821C-134.233 804.851 -113.639 806.011 -73.8714 806.011H-13.8653L-3.21329 814.999C10.6343 826.596 18.8008 825.146 28.0325 808.91C37.2642 793.834 36.9091 793.544 47.2061 833.554C55.0175 863.127 58.5682 869.796 67.0898 869.796C74.5461 869.796 78.4519 859.358 86.2633 819.637C90.1691 800.502 94.0748 784.266 94.7849 783.396C95.8501 782.816 97.6254 786.005 98.6906 790.354C103.662 809.2 113.248 830.365 117.154 831.235C124.61 833.264 128.871 821.377 135.973 782.236C139.878 761.361 143.429 743.675 144.494 743.096C146.269 741.356 153.016 781.077 157.277 820.507C162.603 868.926 167.928 897.919 173.254 903.428C177.515 908.357 177.87 908.067 181.421 902.848C186.747 894.73 192.428 852.4 196.334 792.964C201.305 717.872 204.145 692.937 207.341 691.198C209.116 690.328 210.536 696.127 210.536 704.245C210.536 725.99 220.833 917.344 223.319 941.409C225.449 961.994 229 968.952 235.746 963.444C240.007 959.964 244.623 930.101 252.789 850.95C257.05 812.679 261.311 775.568 262.376 768.32C264.506 756.722 265.217 756.143 267.347 762.811C268.767 766.87 270.898 780.497 272.318 793.254C275.158 819.348 281.195 857.329 283.68 864.577C286.521 871.825 294.687 870.955 297.173 863.127C298.238 859.648 302.143 828.045 306.404 792.964C310.31 757.882 314.571 720.771 315.636 710.623C318.832 683.66 322.737 694.097 325.223 734.978C333.389 866.316 342.266 957.935 346.882 961.994C348.302 962.864 350.432 962.284 352.208 960.834C356.469 957.355 363.215 855.879 363.57 789.485C364.635 684.239 368.541 699.316 371.381 817.608C374.577 962.864 379.193 1063.76 382.388 1066.37C390.555 1072.75 391.975 1046.36 396.946 817.608C398.011 770.639 399.787 698.736 401.207 658.146C403.692 588.852 404.047 586.533 406.178 619.005C407.243 638.14 409.728 721.061 411.149 803.111C415.054 1030.42 424.641 1267.87 429.612 1269.03C432.098 1269.9 434.228 1264.1 435.648 1251.93C438.844 1225.25 444.88 899.369 444.88 756.722C444.88 687.429 446.3 635.531 448.076 637.85C449.851 640.17 452.336 702.215 453.402 775.568C454.822 848.921 458.372 972.721 460.858 1051C463.698 1128.99 466.894 1222.35 467.959 1258.3C470.445 1328.76 471.51 1339.19 477.191 1334.56C482.162 1330.5 486.068 1160.31 491.394 737.877C493.524 543.333 496.72 381.551 498.14 378.652C499.56 375.462 501.691 432.869 503.111 506.222C504.531 579.284 506.306 647.128 507.017 656.696C508.082 666.264 510.212 759.622 512.342 863.997C519.799 1252.51 523.35 1405.01 525.125 1412.84C526.19 1417.19 529.031 1420.38 531.161 1419.8C534.002 1419.22 536.132 1400.95 537.907 1362.39C540.748 1289.33 550.335 845.441 553.53 645.099C554.595 558.989 557.081 483.897 558.501 478.388C560.276 472.01 561.342 485.346 561.697 516.079C562.052 542.463 563.827 608.277 565.602 662.495C567.378 716.712 570.573 851.82 572.704 962.574C576.609 1190.17 578.385 1223.51 585.131 1223.51C587.972 1223.51 590.457 1217.42 591.877 1205.54C596.138 1168.43 606.08 937.93 612.116 739.326C614.246 665.104 617.442 601.319 618.862 597.26C620.993 592.041 622.058 596.1 622.058 611.757C622.413 636.111 627.739 810.65 633.065 972.721C634.84 1031.58 637.681 1084.92 638.746 1090.72C642.652 1108.99 649.753 1104.06 652.239 1082.03C657.565 1032.45 667.151 862.257 672.122 726.28C673.898 672.062 677.093 623.644 678.869 619.005L682.064 610.307L682.419 619.005C683.484 649.448 697.332 832.105 699.107 838.483C700.172 843.122 703.368 846.601 705.854 846.601C711.18 846.601 718.281 829.785 718.281 816.738C718.281 812.389 719.701 808.91 721.121 808.91C722.897 808.91 725.382 824.856 726.447 844.282C731.773 924.303 740.65 953.586 753.787 933.581C758.048 927.202 765.15 872.985 773.316 787.165C784.678 666.844 786.454 650.607 789.294 643.649C792.845 634.081 795.33 651.477 799.946 721.931C805.272 795.573 813.439 869.216 818.054 880.523C822.67 892.41 832.967 893.28 838.648 881.973C843.619 871.825 850.72 833.844 862.083 756.722C867.053 722.51 872.379 691.778 874.155 688.588C878.416 680.47 880.546 699.316 885.162 787.165C891.198 899.949 895.459 956.775 897.589 959.674C899.009 961.414 902.915 962.574 906.466 962.574C915.698 962.574 921.379 945.468 933.096 885.742C942.327 838.773 957.24 779.917 963.276 766.87C970.378 751.504 977.124 759.332 995.232 804.561C1008.72 838.483 1017.25 849.5 1028.96 849.5C1045.65 849.5 1054.88 828.915 1071.57 753.823C1076.9 730.628 1082.22 710.623 1084 709.464C1087.55 705.984 1092.88 725.99 1103.53 783.106C1112.4 831.815 1119.86 854.719 1127.67 858.778C1142.94 866.896 1153.59 855.589 1169.57 814.129C1175.61 797.893 1183.77 782.236 1189.1 777.887L1197.62 769.769L1207.56 779.917C1229.93 803.691 1239.52 808.91 1259.05 808.91C1294.55 808.91 1329.7 784.556 1352.07 744.545C1357.04 735.557 1369.12 703.085 1378.35 672.932C1387.94 641.909 1400.36 609.727 1406.4 599.579C1420.6 575.805 1449.01 552.9 1478.12 541.303C1500.49 532.315 1502.62 532.025 1547.36 532.025C1592.1 532.025 1594.23 532.315 1617.66 541.303C1708.91 576.675 1736.97 670.033 1676.25 735.847C1659.92 753.533 1627.6 772.089 1600.97 778.757C1591.03 781.077 1560.85 784.266 1534.22 785.715C1466.05 789.485 1432.67 799.342 1402.14 825.146C1360.6 860.228 1346.75 901.398 1346.75 992.147V1035.06H1364.15H1381.54L1383.32 971.852C1384.38 922.853 1386.16 905.457 1391.13 892.99C1401.07 867.186 1412.79 850.95 1430.54 838.483C1456.11 819.927 1478.12 814.709 1540.26 811.809C1617.31 808.33 1652.81 796.733 1692.23 762.521C1748.68 713.233 1760.04 649.738 1723.12 587.402C1702.52 552.321 1666.66 526.807 1616.6 511.73C1593.52 504.482 1584.64 503.322 1550.91 503.322C1518.6 503.032 1507.24 504.482 1485.22 510.281C1425.57 525.937 1377.28 567.687 1360.95 617.555C1358.82 624.224 1353.14 648.288 1348.52 670.903C1334.32 740.196 1312.31 776.148 1274.31 792.094C1255.85 799.922 1247.68 797.313 1226.38 777.307C1207.21 759.332 1200.46 756.143 1187.68 759.912C1175.96 763.391 1167.08 777.597 1153.24 813.839C1146.14 831.815 1139.03 846.601 1137.26 846.601C1131.93 846.601 1126.96 829.785 1118.09 781.077C1103.88 706.274 1096.78 687.139 1083.29 687.139C1073.7 687.139 1068.02 700.186 1059.14 741.066C1045.65 803.981 1035.35 835.004 1028.61 835.004C1024.35 835.004 1016.18 819.927 1005.88 792.964C995.942 766.58 983.515 748.024 974.993 746.285C964.342 743.965 956.885 749.184 948.364 765.13C940.552 780.497 926.349 835.874 919.248 881.103C916.408 899.369 912.147 915.605 910.372 917.055C907.531 919.374 906.466 919.084 906.466 915.895C906.111 877.624 892.973 695.837 888.357 668.293C884.097 642.489 882.321 637.85 876.285 637.85C873.445 637.85 869.894 640.17 867.764 642.779C864.568 647.998 851.786 719.611 847.525 756.722C846.46 767.16 842.554 793.254 838.648 814.709C835.098 836.164 831.902 855.009 831.902 856.459C831.902 858.198 830.837 858.198 828.706 856.459C825.511 853.849 820.895 812.969 814.149 724.83C804.917 606.828 801.366 576.965 794.975 572.036C790.714 568.557 782.903 574.065 781.127 582.473C778.997 591.461 775.446 623.644 759.113 788.325C750.947 869.216 749.172 881.683 745.266 878.204C744.556 877.624 742.07 846.891 739.585 810.36C737.454 773.538 734.259 739.037 732.838 733.528C728.933 718.161 720.766 720.481 717.216 737.877C715.795 745.705 713.31 757.012 712.245 762.521L710.114 772.669L707.629 763.971C706.209 759.042 703.013 723.96 700.527 685.689C696.622 616.106 687.745 530.576 684.194 521.008C681.709 514.919 673.543 514.63 670.702 520.718C667.861 527.097 650.818 866.606 650.818 920.244C650.818 927.492 649.398 930.681 647.623 928.942C645.492 927.492 642.652 858.488 640.521 769.769C635.55 570.296 629.869 414.023 627.384 396.337C623.833 376.042 616.377 378.652 613.891 400.686C611.761 424.461 605.725 550.001 601.109 671.193C591.877 916.475 590.102 960.834 589.037 961.704C586.551 963.733 583.356 863.417 578.03 607.408C571.639 309.648 566.668 173.67 561.697 169.901C559.566 168.161 557.436 168.161 555.305 169.901C551.045 173.38 545.364 353.428 540.748 617.555C535.777 909.806 532.936 1015.63 530.096 1000.26C528.676 993.017 526.545 935.61 525.125 872.695C519.089 561.019 507.727 142.068 502.756 45.5204C501.335 12.4682 499.56 0.00113111 496.364 0.00113111C493.169 0.00113111 491.394 13.6279 489.618 51.319Z" stroke="white" stroke-width="2.45286" shape-rendering="crispEdges"/>
</g>
</g>
<defs>
<filter id="filter1_d_172_10" x="-143.95" y="-1.22531" width="1895.46" height="1433.94" filterUnits="userSpaceOnUse" color-interpolation-filters="sRGB">
<feFlood flood-opacity="0" result="BackgroundImageFix"/>
<feColorMatrix in="SourceAlpha" type="matrix" values="0 0 0 0 0 0 0 0 0 0 0 0 0 0 0 0 0 0 127 0" result="hardAlpha"/>
<feOffset dy="5.80889"/>
<feGaussianBlur stdDeviation="2.90444"/>
<feComposite in2="hardAlpha" operator="out"/>
<feColorMatrix type="matrix" values="0 0 0 0 0 0 0 0 0 0 0 0 0 0 0 0 0 0 0.25 0"/>
<feBlend mode="normal" in2="BackgroundImageFix" result="effect1_dropShadow_172_10"/>
<feBlend mode="normal" in="SourceGraphic" in2="effect1_dropShadow_172_10" result="shape"/>
</filter>
<clipPath id="clip0_172_10">
<rect width="1419" height="1419.93" fill="white" transform="translate(-110)"/>
</clipPath>
</defs>
</svg>
