<svg width="429" height="454" viewBox="0 0 429 454" fill="none" xmlns="http://www.w3.org/2000/svg">
<g filter="url(#filter0_d_160_49)">
<rect x="156" y="157" width="131" height="142" fill="black"/>
<path d="M183.623 294.068L270.073 235.255L183.623 176.441V294.068ZM214.498 365.951C197.413 365.951 181.358 362.519 166.333 355.653C151.307 348.787 138.236 339.477 127.121 327.723C116.006 315.969 107.209 302.137 100.729 286.226C94.2497 270.316 91.0058 253.326 90.9976 235.255C90.9893 217.184 94.2333 200.193 100.729 184.283C107.225 168.373 116.023 154.54 127.121 142.786C138.22 131.032 151.29 121.722 166.333 114.857C181.375 107.991 197.43 104.558 214.498 104.558C231.565 104.558 247.62 107.991 262.663 114.857C277.705 121.722 290.775 131.032 301.874 142.786C312.972 154.54 321.774 168.373 328.278 184.283C334.782 200.193 338.022 217.184 337.998 235.255C337.973 253.326 334.729 270.316 328.266 286.226C321.803 302.137 313.005 315.969 301.874 327.723C290.742 339.477 277.672 348.791 262.663 355.666C247.653 362.54 231.598 365.969 214.498 365.951Z" fill="white" fill-opacity="0.1"/>
</g>
<defs>
<filter id="filter0_d_160_49" x="-3.32215" y="0" width="435.644" height="460.644" filterUnits="userSpaceOnUse" color-interpolation-filters="sRGB">
<feFlood flood-opacity="0" result="BackgroundImageFix"/>
<feColorMatrix in="SourceAlpha" type="matrix" values="0 0 0 0 0 0 0 0 0 0 0 0 0 0 0 0 0 0 127 0" result="hardAlpha"/>
<feOffset dy="3.32215"/>
<feGaussianBlur stdDeviation="1.66108"/>
<feComposite in2="hardAlpha" operator="out"/>
<feColorMatrix type="matrix" values="0 0 0 0 0 0 0 0 0 0 0 0 0 0 0 0 0 0 0.25 0"/>
<feBlend mode="normal" in2="BackgroundImageFix" result="effect1_dropShadow_160_49"/>
<feBlend mode="normal" in="SourceGraphic" in2="effect1_dropShadow_160_49" result="shape"/>
</filter>
</defs>
</svg>
