<svg width="319" height="76" viewBox="0 0 319 76" fill="none" xmlns="http://www.w3.org/2000/svg">
<path d="M9.57031e-05 26.3015V1.9805H17.1638V5.00326H3.47453V26.3015H9.57031e-05ZM3.12708 16.4689V13.4809H15.6698V16.4689H3.12708ZM24.7033 26.3015V7.88703H27.8998V12.8902L27.5871 11.6394C28.0967 10.3655 28.9537 9.39262 30.1581 8.7209C31.3626 8.04917 32.845 7.71331 34.6054 7.71331V10.9445C34.4664 10.9214 34.3275 10.9098 34.1885 10.9098C34.0727 10.9098 33.9569 10.9098 33.841 10.9098C32.0575 10.9098 30.6446 11.4425 29.6022 12.508C28.5599 13.5735 28.0387 15.1138 28.0387 17.129V26.3015H24.7033ZM42.1908 26.3015V7.88703H45.5263V26.3015H42.1908ZM43.8585 4.34311C43.21 4.34311 42.6656 4.13465 42.2256 3.71772C41.8086 3.30079 41.6002 2.7912 41.6002 2.18897C41.6002 1.56357 41.8086 1.04241 42.2256 0.625475C42.6656 0.208543 43.21 7.69237e-05 43.8585 7.69237e-05C44.5071 7.69237e-05 45.0398 0.208543 45.4568 0.625475C45.8969 1.01924 46.1169 1.51724 46.1169 2.11948C46.1169 2.74488 45.9084 3.27762 45.4915 3.71772C45.0746 4.13465 44.5303 4.34311 43.8585 4.34311ZM63.5689 26.51C61.6 26.51 59.8628 26.1046 58.3572 25.2939C56.8748 24.4832 55.7166 23.3714 54.8828 21.9585C54.0721 20.5455 53.6667 18.9241 53.6667 17.0943C53.6667 15.2644 54.0605 13.643 54.848 12.2301C55.6587 10.8171 56.759 9.7169 58.1487 8.92936C59.5617 8.11866 61.1483 7.71331 62.9087 7.71331C64.6923 7.71331 66.2673 8.10708 67.6339 8.89462C69.0006 9.68216 70.066 10.794 70.8304 12.2301C71.618 13.643 72.0117 15.2992 72.0117 17.1985C72.0117 17.3375 72.0001 17.4996 71.977 17.6849C71.977 17.8702 71.9654 18.044 71.9422 18.2061H56.2726V15.8087H70.205L68.85 16.6426C68.8732 15.4613 68.6299 14.4074 68.1204 13.4809C67.6108 12.5544 66.9043 11.8363 66.001 11.3267C65.1208 10.794 64.09 10.5276 62.9087 10.5276C61.7506 10.5276 60.7198 10.794 59.8165 11.3267C58.9131 11.8363 58.2067 12.5659 57.6971 13.5156C57.1875 14.4421 56.9327 15.5076 56.9327 16.7121V17.268C56.9327 18.4956 57.2107 19.5959 57.7666 20.5687C58.3456 21.5184 59.1448 22.2596 60.1639 22.7923C61.1831 23.3251 62.3528 23.5915 63.6731 23.5915C64.7617 23.5915 65.7462 23.4062 66.6264 23.0355C67.5297 22.6649 68.3172 22.109 68.989 21.3678L70.8304 23.522C69.9966 24.4948 68.9542 25.236 67.7034 25.7456C66.4758 26.2552 65.0976 26.51 63.5689 26.51ZM80.1177 26.3015V7.88703H83.3142V12.8555L82.7931 11.5352C83.3953 10.3307 84.3218 9.39262 85.5726 8.7209C86.8234 8.04917 88.2827 7.71331 89.9504 7.71331C91.456 7.71331 92.7762 8.00285 93.9112 8.58192C95.0694 9.16099 95.9727 10.0412 96.6213 11.2225C97.2698 12.4038 97.5941 13.8978 97.5941 15.7045V26.3015H94.2587V16.0867C94.2587 14.3031 93.8186 12.9597 92.9384 12.0563C92.0814 11.153 90.8653 10.7013 89.2902 10.7013C88.1089 10.7013 87.0782 10.933 86.198 11.3962C85.3178 11.8595 84.6345 12.5428 84.1481 13.4461C83.6848 14.3495 83.4532 15.4729 83.4532 16.8163V26.3015H80.1177ZM114.85 26.51C113.067 26.51 111.469 26.1162 110.056 25.3287C108.666 24.5411 107.566 23.4409 106.755 22.028C105.944 20.615 105.539 18.9705 105.539 17.0943C105.539 15.2181 105.944 13.5851 106.755 12.1953C107.566 10.7824 108.666 9.68216 110.056 8.89462C111.469 8.10708 113.067 7.71331 114.85 7.71331C116.402 7.71331 117.804 8.06076 119.054 8.75564C120.305 9.45053 121.301 10.4929 122.042 11.8826C122.807 13.2724 123.189 15.0096 123.189 17.0943C123.189 19.1789 122.818 20.9161 122.077 22.3059C121.359 23.6957 120.375 24.7496 119.124 25.4677C117.873 26.1625 116.449 26.51 114.85 26.51ZM115.128 23.5915C116.286 23.5915 117.329 23.3251 118.255 22.7923C119.205 22.2596 119.946 21.5068 120.479 20.534C121.035 19.538 121.313 18.3914 121.313 17.0943C121.313 15.774 121.035 14.639 120.479 13.6893C119.946 12.7165 119.205 11.9637 118.255 11.431C117.329 10.8982 116.286 10.6318 115.128 10.6318C113.947 10.6318 112.893 10.8982 111.967 11.431C111.04 11.9637 110.299 12.7165 109.743 13.6893C109.187 14.639 108.909 15.774 108.909 17.0943C108.909 18.3914 109.187 19.538 109.743 20.534C110.299 21.5068 111.04 22.2596 111.967 22.7923C112.893 23.3251 113.947 23.5915 115.128 23.5915ZM121.417 26.3015V21.3331L121.626 17.0595L121.278 12.786V0.521241H124.614V26.3015H121.417ZM134.399 26.3015V0.521241H137.734V26.3015H134.399ZM148.343 33.2504C147.462 33.2504 146.605 33.0998 145.771 32.7987C144.938 32.5207 144.22 32.1038 143.617 31.5479L145.042 29.0463C145.505 29.4864 146.015 29.8223 146.571 30.0539C147.126 30.2855 147.717 30.4013 148.343 30.4013C149.153 30.4013 149.825 30.1929 150.358 29.7759C150.89 29.359 151.388 28.6178 151.852 27.5523L152.998 25.016L153.346 24.599L160.573 7.88703H163.838L154.909 28.143C154.376 29.4401 153.774 30.4592 153.102 31.2005C152.454 31.9417 151.736 32.4628 150.948 32.764C150.161 33.0882 149.292 33.2504 148.343 33.2504ZM152.72 26.8922L144.312 7.88703H147.787L154.944 24.2863L152.72 26.8922ZM183.717 26.3015V1.9805H193.203C195.334 1.9805 197.152 2.31636 198.657 2.98809C200.163 3.65981 201.321 4.63265 202.132 5.90661C202.943 7.18057 203.348 8.69773 203.348 10.4581C203.348 12.2185 202.943 13.7357 202.132 15.0096C201.321 16.2604 200.163 17.2333 198.657 17.9281C197.152 18.5999 195.334 18.9357 193.203 18.9357H185.628L187.192 17.3027V26.3015H183.717ZM187.192 17.6502L185.628 15.913H193.098C195.322 15.913 197.001 15.4381 198.136 14.4885C199.294 13.5388 199.873 12.1953 199.873 10.4581C199.873 8.7209 199.294 7.37745 198.136 6.42777C197.001 5.47809 195.322 5.00326 193.098 5.00326H185.628L187.192 3.26604V17.6502ZM219.572 26.51C217.603 26.51 215.866 26.1046 214.36 25.2939C212.878 24.4832 211.72 23.3714 210.886 21.9585C210.075 20.5455 209.67 18.9241 209.67 17.0943C209.67 15.2644 210.064 13.643 210.851 12.2301C211.662 10.8171 212.762 9.7169 214.152 8.92936C215.565 8.11866 217.152 7.71331 218.912 7.71331C220.696 7.71331 222.271 8.10708 223.637 8.89462C225.004 9.68216 226.069 10.794 226.834 12.2301C227.621 13.643 228.015 15.2992 228.015 17.1985C228.015 17.3375 228.003 17.4996 227.98 17.6849C227.98 17.8702 227.969 18.044 227.946 18.2061H212.276V15.8087H226.208L224.853 16.6426C224.876 15.4613 224.633 14.4074 224.124 13.4809C223.614 12.5544 222.908 11.8363 222.004 11.3267C221.124 10.794 220.093 10.5276 218.912 10.5276C217.754 10.5276 216.723 10.794 215.82 11.3267C214.916 11.8363 214.21 12.5659 213.7 13.5156C213.191 14.4421 212.936 15.5076 212.936 16.7121V17.268C212.936 18.4956 213.214 19.5959 213.77 20.5687C214.349 21.5184 215.148 22.2596 216.167 22.7923C217.186 23.3251 218.356 23.5915 219.676 23.5915C220.765 23.5915 221.749 23.4062 222.63 23.0355C223.533 22.6649 224.321 22.109 224.992 21.3678L226.834 23.522C226 24.4948 224.957 25.236 223.707 25.7456C222.479 26.2552 221.101 26.51 219.572 26.51ZM244.008 26.51C242.155 26.51 240.51 26.1046 239.074 25.2939C237.638 24.4832 236.503 23.3714 235.669 21.9585C234.835 20.5224 234.419 18.901 234.419 17.0943C234.419 15.2644 234.835 13.643 235.669 12.2301C236.503 10.8171 237.638 9.7169 239.074 8.92936C240.51 8.11866 242.155 7.71331 244.008 7.71331C245.838 7.71331 247.471 8.11866 248.907 8.92936C250.366 9.7169 251.501 10.8171 252.312 12.2301C253.146 13.6198 253.563 15.2412 253.563 17.0943C253.563 18.9241 253.146 20.5455 252.312 21.9585C251.501 23.3714 250.366 24.4832 248.907 25.2939C247.471 26.1046 245.838 26.51 244.008 26.51ZM244.008 23.5915C245.189 23.5915 246.243 23.3251 247.17 22.7923C248.119 22.2596 248.861 21.5068 249.393 20.534C249.926 19.538 250.192 18.3914 250.192 17.0943C250.192 15.774 249.926 14.639 249.393 13.6893C248.861 12.7165 248.119 11.9637 247.17 11.431C246.243 10.8982 245.189 10.6318 244.008 10.6318C242.827 10.6318 241.773 10.8982 240.846 11.431C239.92 11.9637 239.179 12.7165 238.623 13.6893C238.067 14.639 237.789 15.774 237.789 17.0943C237.789 18.3914 238.067 19.538 238.623 20.534C239.179 21.5068 239.92 22.2596 240.846 22.7923C241.773 23.3251 242.827 23.5915 244.008 23.5915ZM271.413 26.51C269.884 26.51 268.483 26.1625 267.209 25.4677C265.958 24.7496 264.951 23.6957 264.186 22.3059C263.445 20.9161 263.074 19.1789 263.074 17.0943C263.074 15.0096 263.433 13.2724 264.152 11.8826C264.893 10.4929 265.889 9.45053 267.14 8.75564C268.414 8.06076 269.838 7.71331 271.413 7.71331C273.22 7.71331 274.818 8.10708 276.208 8.89462C277.598 9.68216 278.698 10.7824 279.509 12.1953C280.319 13.5851 280.725 15.2181 280.725 17.0943C280.725 18.9705 280.319 20.615 279.509 22.028C278.698 23.4409 277.598 24.5411 276.208 25.3287C274.818 26.1162 273.22 26.51 271.413 26.51ZM261.65 33.0419V7.88703H264.846V12.8555L264.638 17.129L264.985 21.4026V33.0419H261.65ZM271.135 23.5915C272.316 23.5915 273.37 23.3251 274.297 22.7923C275.247 22.2596 275.988 21.5068 276.521 20.534C277.076 19.538 277.354 18.3914 277.354 17.0943C277.354 15.774 277.076 14.639 276.521 13.6893C275.988 12.7165 275.247 11.9637 274.297 11.431C273.37 10.8982 272.316 10.6318 271.135 10.6318C269.977 10.6318 268.923 10.8982 267.973 11.431C267.047 11.9637 266.306 12.7165 265.75 13.6893C265.217 14.639 264.951 15.774 264.951 17.0943C264.951 18.3914 265.217 19.538 265.75 20.534C266.306 21.5068 267.047 22.2596 267.973 22.7923C268.923 23.3251 269.977 23.5915 271.135 23.5915ZM288.807 26.3015V0.521241H292.143V26.3015H288.807ZM310.186 26.51C308.217 26.51 306.479 26.1046 304.974 25.2939C303.491 24.4832 302.333 23.3714 301.499 21.9585C300.689 20.5455 300.283 18.9241 300.283 17.0943C300.283 15.2644 300.677 13.643 301.465 12.2301C302.275 10.8171 303.376 9.7169 304.765 8.92936C306.178 8.11866 307.765 7.71331 309.525 7.71331C311.309 7.71331 312.884 8.10708 314.251 8.89462C315.617 9.68216 316.683 10.794 317.447 12.2301C318.235 13.643 318.628 15.2992 318.628 17.1985C318.628 17.3375 318.617 17.4996 318.594 17.6849C318.594 17.8702 318.582 18.044 318.559 18.2061H302.889V15.8087H316.822L315.467 16.6426C315.49 15.4613 315.247 14.4074 314.737 13.4809C314.227 12.5544 313.521 11.8363 312.618 11.3267C311.737 10.794 310.707 10.5276 309.525 10.5276C308.367 10.5276 307.337 10.794 306.433 11.3267C305.53 11.8363 304.823 12.5659 304.314 13.5156C303.804 14.4421 303.549 15.5076 303.549 16.7121V17.268C303.549 18.4956 303.827 19.5959 304.383 20.5687C304.962 21.5184 305.761 22.2596 306.781 22.7923C307.8 23.3251 308.969 23.5915 310.29 23.5915C311.378 23.5915 312.363 23.4062 313.243 23.0355C314.146 22.6649 314.934 22.109 315.606 21.3678L317.447 23.522C316.613 24.4948 315.571 25.236 314.32 25.7456C313.092 26.2552 311.714 26.51 310.186 26.51ZM54.5158 68.5795C52.6628 68.5795 50.9487 68.2784 49.3736 67.6761C47.8217 67.0507 46.4667 66.1821 45.3086 65.0703C44.1736 63.9353 43.2818 62.615 42.6333 61.1094C41.9847 59.6039 41.6604 57.9477 41.6604 56.141C41.6604 54.3343 41.9847 52.6782 42.6333 51.1726C43.2818 49.667 44.1852 48.3583 45.3433 47.2465C46.5014 46.1115 47.8565 45.2429 49.4084 44.6406C50.9835 44.0152 52.6975 43.7025 54.5505 43.7025C56.4267 43.7025 58.1524 44.0268 59.7274 44.6754C61.3257 45.3008 62.6807 46.2389 63.7925 47.4897L61.5342 49.6786C60.6076 48.7057 59.5653 47.9877 58.4072 47.5244C57.249 47.038 56.0098 46.7948 54.6895 46.7948C53.3229 46.7948 52.049 47.0264 50.8677 47.4897C49.7095 47.9529 48.7019 48.6015 47.8449 49.4354C46.9879 50.2692 46.3161 51.2652 45.8297 52.4234C45.3665 53.5583 45.1348 54.7976 45.1348 56.141C45.1348 57.4845 45.3665 58.7352 45.8297 59.8934C46.3161 61.0284 46.9879 62.0128 47.8449 62.8467C48.7019 63.6805 49.7095 64.3291 50.8677 64.7923C52.049 65.2556 53.3229 65.4872 54.6895 65.4872C56.0098 65.4872 57.249 65.2556 58.4072 64.7923C59.5653 64.3059 60.6076 63.5647 61.5342 62.5687L63.7925 64.7576C62.6807 66.0084 61.3257 66.9581 59.7274 67.6066C58.1524 68.2552 56.4152 68.5795 54.5158 68.5795ZM78.5043 68.51C76.6513 68.51 75.0067 68.1046 73.5706 67.2939C72.1345 66.4832 70.9995 65.3714 70.1657 63.9585C69.3318 62.5224 68.9149 60.901 68.9149 59.0943C68.9149 57.2644 69.3318 55.643 70.1657 54.2301C70.9995 52.8171 72.1345 51.7169 73.5706 50.9294C75.0067 50.1187 76.6513 49.7133 78.5043 49.7133C80.3342 49.7133 81.9671 50.1187 83.4032 50.9294C84.8625 51.7169 85.9975 52.8171 86.8082 54.2301C87.6421 55.6198 88.059 57.2412 88.059 59.0943C88.059 60.9241 87.6421 62.5455 86.8082 63.9585C85.9975 65.3714 84.8625 66.4832 83.4032 67.2939C81.9671 68.1046 80.3342 68.51 78.5043 68.51ZM78.5043 65.5915C79.6856 65.5915 80.7395 65.3251 81.666 64.7923C82.6157 64.2596 83.3569 63.5068 83.8897 62.534C84.4224 61.538 84.6888 60.3914 84.6888 59.0943C84.6888 57.774 84.4224 56.639 83.8897 55.6893C83.3569 54.7165 82.6157 53.9637 81.666 53.431C80.7395 52.8982 79.6856 52.6318 78.5043 52.6318C77.323 52.6318 76.2691 52.8982 75.3426 53.431C74.4161 53.9637 73.6748 54.7165 73.1189 55.6893C72.563 56.639 72.2851 57.774 72.2851 59.0943C72.2851 60.3914 72.563 61.538 73.1189 62.534C73.6748 63.5068 74.4161 64.2596 75.3426 64.7923C76.2691 65.3251 77.323 65.5915 78.5043 65.5915ZM96.1463 68.3015V49.887H99.3427V54.786L98.8216 53.5352C99.4006 52.3307 100.292 51.3926 101.497 50.7209C102.701 50.0492 104.103 49.7133 105.701 49.7133C107.461 49.7133 108.978 50.1534 110.252 51.0336C111.526 51.8906 112.36 53.1993 112.754 54.9597L111.399 54.4038C111.955 52.9909 112.928 51.8559 114.318 50.9989C115.707 50.1418 117.329 49.7133 119.182 49.7133C120.664 49.7133 121.973 50.0028 123.108 50.5819C124.243 51.161 125.123 52.0412 125.748 53.2225C126.397 54.4038 126.721 55.8978 126.721 57.7045V68.3015H123.386V58.0867C123.386 56.3031 122.969 54.9597 122.135 54.0563C121.301 53.153 120.131 52.7013 118.626 52.7013C117.514 52.7013 116.541 52.933 115.707 53.3962C114.873 53.8595 114.225 54.5428 113.762 55.4461C113.322 56.3495 113.101 57.4729 113.101 58.8163V68.3015H109.766V58.0867C109.766 56.3031 109.349 54.9597 108.515 54.0563C107.705 53.153 106.535 52.7013 105.006 52.7013C103.917 52.7013 102.956 52.933 102.122 53.3962C101.288 53.8595 100.64 54.5428 100.177 55.4461C99.7133 56.3495 99.4817 57.4729 99.4817 58.8163V68.3015H96.1463ZM136.333 68.3015V49.887H139.529V54.786L139.008 53.5352C139.587 52.3307 140.479 51.3926 141.684 50.7209C142.888 50.0492 144.289 49.7133 145.888 49.7133C147.648 49.7133 149.165 50.1534 150.439 51.0336C151.713 51.8906 152.547 53.1993 152.941 54.9597L151.586 54.4038C152.142 52.9909 153.114 51.8559 154.504 50.9989C155.894 50.1418 157.515 49.7133 159.368 49.7133C160.851 49.7133 162.16 50.0028 163.295 50.5819C164.429 51.161 165.31 52.0412 165.935 53.2225C166.584 54.4038 166.908 55.8978 166.908 57.7045V68.3015H163.572V58.0867C163.572 56.3031 163.156 54.9597 162.322 54.0563C161.488 53.153 160.318 52.7013 158.812 52.7013C157.701 52.7013 156.728 52.933 155.894 53.3962C155.06 53.8595 154.412 54.5428 153.948 55.4461C153.508 56.3495 153.288 57.4729 153.288 58.8163V68.3015H149.953V58.0867C149.953 56.3031 149.536 54.9597 148.702 54.0563C147.891 53.153 146.721 52.7013 145.193 52.7013C144.104 52.7013 143.143 52.933 142.309 53.3962C141.475 53.8595 140.827 54.5428 140.363 55.4461C139.9 56.3495 139.668 57.4729 139.668 58.8163V68.3015H136.333ZM184.268 68.51C182.692 68.51 181.303 68.2204 180.098 67.6414C178.917 67.0623 177.99 66.1821 177.319 65.0008C176.67 63.7963 176.346 62.2907 176.346 60.484V49.887H179.681V60.1019C179.681 61.9086 180.11 63.2636 180.967 64.1669C181.847 65.0703 183.075 65.522 184.65 65.522C185.808 65.522 186.815 65.2903 187.673 64.8271C188.53 64.3407 189.19 63.6458 189.653 62.7424C190.116 61.8159 190.348 60.7041 190.348 59.407V49.887H193.683V68.3015H190.522V63.3331L191.043 64.6534C190.44 65.881 189.537 66.8307 188.333 67.5024C187.128 68.1741 185.773 68.51 184.268 68.51ZM203.507 68.3015V49.887H206.704V54.8555L206.183 53.5352C206.785 52.3307 207.712 51.3926 208.962 50.7209C210.213 50.0492 211.672 49.7133 213.34 49.7133C214.846 49.7133 216.166 50.0028 217.301 50.5819C218.459 51.161 219.362 52.0412 220.011 53.2225C220.66 54.4038 220.984 55.8978 220.984 57.7045V68.3015H217.648V58.0867C217.648 56.3031 217.208 54.9597 216.328 54.0563C215.471 53.153 214.255 52.7013 212.68 52.7013C211.499 52.7013 210.468 52.933 209.588 53.3962C208.708 53.8595 208.024 54.5428 207.538 55.4461C207.075 56.3495 206.843 57.4729 206.843 58.8163V68.3015H203.507ZM230.631 68.3015V49.887H233.967V68.3015H230.631ZM232.299 46.3431C231.65 46.3431 231.106 46.1346 230.666 45.7177C230.249 45.3008 230.04 44.7912 230.04 44.189C230.04 43.5636 230.249 43.0424 230.666 42.6255C231.106 42.2085 231.65 42.0001 232.299 42.0001C232.947 42.0001 233.48 42.2085 233.897 42.6255C234.337 43.0192 234.557 43.5172 234.557 44.1195C234.557 44.7449 234.349 45.2776 233.932 45.7177C233.515 46.1346 232.971 46.3431 232.299 46.3431ZM250.031 68.51C248.178 68.51 246.742 68.012 245.723 67.016C244.704 66.02 244.194 64.5955 244.194 62.7424V45.8567H247.53V62.6034C247.53 63.5995 247.773 64.3638 248.259 64.8966C248.769 65.4293 249.487 65.6957 250.413 65.6957C251.456 65.6957 252.324 65.4062 253.019 64.8271L254.062 67.2244C253.552 67.6645 252.938 67.9888 252.22 68.1973C251.525 68.4057 250.796 68.51 250.031 68.51ZM241.067 52.6318V49.887H252.811V52.6318H241.067ZM261.01 75.2504C260.13 75.2504 259.273 75.0998 258.439 74.7987C257.605 74.5207 256.887 74.1038 256.285 73.5479L257.71 71.0463C258.173 71.4864 258.683 71.8223 259.238 72.0539C259.794 72.2855 260.385 72.4013 261.01 72.4013C261.821 72.4013 262.493 72.1929 263.026 71.7759C263.558 71.359 264.056 70.6178 264.52 69.5523L265.666 67.016L266.014 66.599L273.24 49.887H276.506L267.577 70.143C267.044 71.4401 266.442 72.4592 265.77 73.2005C265.122 73.9417 264.404 74.4628 263.616 74.764C262.829 75.0882 261.96 75.2504 261.01 75.2504ZM265.388 68.8922L256.98 49.887H260.455L267.612 66.2863L265.388 68.8922Z" fill="#1A1A1A"/>
</svg>
