<svg width="885" height="527" viewBox="0 0 885 527" fill="none" xmlns="http://www.w3.org/2000/svg">
<g opacity="0.9" filter="url(#filter0_d_160_33)">
<path d="M188.424 18.6484C187.143 54.7863 185.755 142.444 185.114 224.413C184.58 299.218 183.833 339.886 182.978 339.043C182.765 338.832 182.124 312.914 181.483 281.307C178.707 143.393 176.999 72.8026 176.251 67.64C175.824 64.5847 175.077 61.9507 174.436 61.8453C173.795 61.74 173.154 77.6491 172.727 106.939C171.873 162.146 170.805 259.076 170.592 293.423C170.271 334.513 168.883 306.487 167.495 232.315C166.107 156.879 164.825 116 163.864 115.157C163.544 114.735 162.69 114.946 162.156 115.473C160.981 116.632 159.593 158.459 158.312 224.729C157.991 246.644 157.457 264.344 157.244 264.133C156.923 263.923 156.069 245.064 155.108 222.201C154.254 199.338 153.293 179.636 152.972 178.266C152.652 176.897 151.905 175.948 151.157 176.264C149.876 176.686 149.342 189.434 146.672 274.985C145.711 305.645 144.75 305.012 143.042 272.351C141.76 248.962 139.945 228.838 139.091 227.363C138.023 225.678 135.674 226.52 135.033 228.838C134.712 230.208 133.431 241.903 132.256 254.967C129.053 291.21 128.839 293.107 127.985 292.159C127.558 291.737 126.383 283.73 125.422 274.458C124.461 265.187 123.287 256.231 122.86 254.546C121.792 250.858 119.87 249.805 119.015 252.544C118.054 255.599 114.317 292.369 113.463 306.382C112.715 319.973 110.9 325.136 110.9 313.757C110.9 303.116 108.871 251.806 107.696 232.315C106.308 209.136 105.667 204.395 103.852 204.395C101.716 204.395 100.862 210.927 98.6198 249.172C95.8434 295.53 94.9891 306.804 94.4552 307.33C93.8145 308.068 93.067 303.116 91.6789 288.155C89.3296 262.342 87.8347 254.967 85.1651 254.967C84.6312 254.967 83.6701 256.126 83.1362 257.601C81.9616 260.551 77.7971 284.784 77.7971 288.366C77.7971 293.423 75.875 290.473 74.1664 282.676C71.7104 271.403 69.3612 268.874 67.2255 275.196C66.5848 277.092 65.1966 284.784 64.022 292.264C62.8474 299.639 61.6728 305.961 61.3525 306.277C60.7118 306.909 60.0711 304.486 58.0422 295.319C56.2269 286.364 53.7709 280.253 52.2759 280.253C50.6741 280.253 48.2181 284.362 46.83 289.419C46.1893 291.948 45.4418 293.95 45.1214 293.95C44.8011 293.95 43.1993 292.896 41.384 291.527C38.3941 289.419 36.7923 289.209 20.3477 288.893C3.15564 288.576 -1.22246 289.209 0.2725 291.737C0.806416 292.475 6.99984 292.896 18.9595 292.896H37.0059L40.2094 296.162C44.3739 300.377 46.83 299.85 49.6063 293.95C52.3827 288.471 52.2759 288.366 55.3726 302.905C57.7218 313.652 58.7897 316.075 61.3525 316.075C63.5949 316.075 64.7695 312.282 67.1187 297.848C68.2934 290.894 69.468 284.994 69.6815 284.678C70.0019 284.468 70.5358 285.626 70.8562 287.207C72.3511 294.055 75.2343 301.746 76.4089 302.062C78.6513 302.8 79.9327 298.48 82.0684 284.257C83.243 276.671 84.3108 270.244 84.6312 270.033C85.1651 269.401 87.194 283.835 88.4754 298.164C90.0771 315.759 91.6789 326.295 93.2806 328.297C94.562 330.088 94.6688 329.982 95.7366 328.086C97.3384 325.136 99.0469 309.754 100.222 288.155C101.716 260.867 102.571 251.806 103.532 251.174C104.066 250.858 104.493 252.965 104.493 255.915C104.493 263.817 107.59 333.354 108.337 342.099C108.978 349.579 110.046 352.108 112.074 350.106C113.356 348.841 114.744 337.99 117.2 309.227C118.481 295.319 119.763 281.834 120.083 279.2C120.724 274.985 120.937 274.775 121.578 277.198C122.005 278.673 122.646 283.625 123.073 288.26C123.927 297.743 125.743 311.545 126.49 314.179C127.344 316.813 129.8 316.496 130.548 313.652C130.868 312.387 132.043 300.903 133.324 288.155C134.499 275.407 135.78 261.921 136.101 258.233C137.062 248.435 138.236 252.228 138.984 267.083C141.44 314.811 144.109 348.104 145.498 349.579C145.925 349.895 146.565 349.684 147.099 349.158C148.381 347.893 150.41 311.018 150.516 286.891C150.837 248.646 152.011 254.124 152.866 297.111C153.827 349.895 155.215 386.56 156.176 387.508C158.632 389.826 159.059 380.238 160.554 297.111C160.874 280.042 161.408 253.914 161.835 239.163C162.583 213.983 162.69 213.14 163.33 224.94C163.651 231.894 164.398 262.026 164.825 291.843C166 374.444 168.883 460.732 170.378 461.153C171.126 461.47 171.766 459.362 172.193 454.937C173.154 445.244 174.97 326.822 174.97 274.985C174.97 249.805 175.397 230.945 175.931 231.788C176.465 232.631 177.212 255.178 177.533 281.834C177.96 308.489 179.027 353.477 179.775 381.924C180.629 410.265 181.59 444.191 181.911 457.255C182.658 482.857 182.978 486.65 184.687 484.964C186.182 483.489 187.357 421.644 188.958 268.137C189.599 197.442 190.56 138.652 190.987 137.598C191.414 136.439 192.055 157.3 192.482 183.956C192.909 210.506 193.443 235.16 193.657 238.637C193.977 242.113 194.618 276.039 195.259 313.968C197.501 455.148 198.569 510.567 199.103 513.411C199.423 514.992 200.277 516.151 200.918 515.94C201.772 515.729 202.413 509.092 202.947 495.079C203.801 468.529 206.684 307.225 207.645 234.422C207.966 203.131 208.713 175.843 209.14 173.841C209.674 171.523 209.995 176.37 210.101 187.538C210.208 197.125 210.742 221.042 211.276 240.744C211.81 260.446 212.771 309.543 213.412 349.79C214.586 432.496 215.12 444.612 217.149 444.612C218.003 444.612 218.751 442.4 219.178 438.08C220.459 424.594 223.449 340.834 225.265 268.664C225.905 241.692 226.866 218.513 227.293 217.038C227.934 215.142 228.255 216.617 228.255 222.306C228.361 231.156 229.963 294.582 231.565 353.477C232.099 374.865 232.953 394.251 233.273 396.358C234.448 402.996 236.584 401.205 237.331 393.197C238.933 375.181 241.816 313.336 243.311 263.923C243.845 244.221 244.806 226.626 245.34 224.94L246.301 221.779L246.408 224.94C246.728 236.003 250.893 302.378 251.426 304.696C251.747 306.382 252.708 307.646 253.455 307.646C255.057 307.646 257.193 301.536 257.193 296.794C257.193 295.214 257.62 293.95 258.047 293.95C258.581 293.95 259.328 299.744 259.649 306.804C261.251 335.882 263.92 346.524 267.871 339.254C269.152 336.936 271.288 317.234 273.744 286.048C277.161 242.324 277.695 236.424 278.549 233.896C279.617 230.419 280.365 236.74 281.753 262.342C283.355 289.103 285.811 315.864 287.199 319.973C288.587 324.293 291.684 324.609 293.392 320.5C294.887 316.813 297.023 303.011 300.44 274.985C301.935 262.553 303.537 251.385 304.071 250.226C305.352 247.276 305.993 254.124 307.381 286.048C309.196 327.032 310.478 347.683 311.118 348.736C311.545 349.368 312.72 349.79 313.788 349.79C316.564 349.79 318.273 343.574 321.797 321.87C324.573 304.802 329.058 283.414 330.873 278.673C333.009 273.089 335.038 275.934 340.484 292.369C344.541 304.696 347.104 308.7 350.628 308.7C355.647 308.7 358.423 301.219 363.442 273.932C365.044 265.503 366.645 258.233 367.179 257.812C368.247 256.548 369.849 263.817 373.052 284.573C375.722 302.273 377.964 310.596 380.314 312.071C384.905 315.021 388.109 310.912 392.914 295.846C394.729 289.946 397.185 284.257 398.787 282.676L401.35 279.726L404.34 283.414C411.067 292.053 413.95 293.95 419.823 293.95C430.502 293.95 441.073 285.1 447.801 270.56C449.296 267.294 452.926 255.494 455.703 244.537C458.586 233.263 462.323 221.569 464.138 217.881C468.41 209.242 476.952 200.918 485.709 196.704C492.436 193.438 493.077 193.333 506.531 193.333C519.986 193.333 520.627 193.438 527.674 196.704C555.118 209.558 563.554 243.483 545.294 267.399C540.382 273.826 530.664 280.569 522.656 282.993C519.666 283.835 510.589 284.994 502.58 285.521C482.078 286.891 472.04 290.473 462.857 299.85C450.363 312.598 446.199 327.559 446.199 360.536V376.129H451.431H456.664L457.198 353.161C457.518 335.356 458.052 329.034 459.547 324.504C462.537 315.127 466.061 309.227 471.4 304.696C479.088 297.953 485.709 296.057 504.396 295.003C527.568 293.739 538.246 289.525 550.099 277.092C567.077 259.182 570.494 236.108 559.389 213.456C553.196 200.708 542.411 191.436 527.354 185.957C520.413 183.324 517.744 182.902 507.599 182.902C497.882 182.797 494.465 183.324 487.844 185.431C469.905 191.12 455.382 206.292 450.47 224.413C449.83 226.837 448.121 235.581 446.733 243.799C442.461 268.98 435.841 282.044 424.415 287.839C418.862 290.684 416.406 289.735 409.999 282.466C404.233 275.934 402.204 274.775 398.36 276.144C394.836 277.409 392.167 282.571 388.002 295.741C385.866 302.273 383.731 307.646 383.197 307.646C381.595 307.646 380.1 301.536 377.431 283.835C373.159 256.653 371.024 249.699 366.966 249.699C364.083 249.699 362.374 254.44 359.705 269.296C355.647 292.159 352.55 303.432 350.521 303.432C349.24 303.432 346.784 297.953 343.687 288.155C340.697 278.567 336.96 271.825 334.397 271.192C331.193 270.35 328.951 272.246 326.388 278.041C324.039 283.625 319.768 303.748 317.632 320.184C316.778 326.822 315.496 332.722 314.962 333.248C314.108 334.091 313.788 333.986 313.788 332.827C313.681 318.92 309.73 252.86 308.342 242.851C307.06 233.474 306.527 231.788 304.711 231.788C303.857 231.788 302.789 232.631 302.148 233.579C301.187 235.476 297.343 261.499 296.062 274.985C295.741 278.778 294.567 288.26 293.392 296.057C292.324 303.853 291.363 310.702 291.363 311.229C291.363 311.861 291.043 311.861 290.402 311.229C289.441 310.28 288.053 295.425 286.024 263.396C283.248 220.515 282.18 209.663 280.258 207.872C278.977 206.608 276.627 208.609 276.093 211.665C275.453 214.931 274.385 226.626 269.473 286.469C267.017 315.864 266.483 320.395 265.308 319.13C265.095 318.92 264.347 307.752 263.6 294.477C262.959 281.096 261.998 268.558 261.571 266.557C260.396 260.973 257.94 261.815 256.872 268.137C256.445 270.982 255.698 275.091 255.377 277.092L254.737 280.78L253.989 277.619C253.562 275.828 252.601 263.08 251.854 249.172C250.679 223.886 248.009 192.806 246.942 189.329C246.194 187.116 243.738 187.011 242.884 189.224C242.03 191.541 236.904 314.916 236.904 334.407C236.904 337.041 236.477 338.2 235.943 337.568C235.302 337.041 234.448 311.966 233.807 279.726C232.312 207.24 230.604 150.452 229.856 144.025C228.788 136.65 226.546 137.598 225.799 145.605C225.158 154.245 223.342 199.865 221.954 243.905C219.178 333.038 218.644 349.158 218.324 349.474C217.576 350.211 216.615 313.757 215.013 220.726C213.091 112.523 211.596 63.1096 210.101 61.74C209.461 61.1078 208.82 61.1078 208.179 61.74C206.898 63.0043 205.189 128.432 203.801 224.413C202.306 330.614 201.452 369.07 200.598 363.486C200.171 360.852 199.53 339.991 199.103 317.129C197.287 203.868 193.87 51.6256 192.375 16.5413C191.948 4.5304 191.414 0 190.453 0C189.492 0 188.958 4.95184 188.424 18.6484Z" fill="#1A1A1A"/>
<path d="M676.854 215.143C676.747 216.092 676.747 265.399 676.747 295.742L676.854 331.88H682.193H687.532V273.406V214.933H682.193C679.31 214.933 676.854 215.038 676.854 215.143Z" fill="#1A1A1A"/>
<path d="M737.184 250.965C729.175 252.018 720.312 256.233 716.895 260.552C710.595 268.77 711.022 279.095 718.069 285.838C722.875 290.369 726.826 291.949 744.445 296.058C759.608 299.535 763.239 301.01 766.442 305.119C770.713 310.492 768.257 317.762 760.889 321.449C755.23 324.399 743.27 325.242 735.582 323.451C729.495 321.976 722.768 316.919 719.991 311.756L718.496 308.912L714.225 310.492C708.993 312.599 708.779 314.39 713.478 320.501C720.205 329.141 731.631 333.987 745.619 333.987C766.549 333.987 779.256 325.242 779.363 310.808C779.363 299.008 770.82 292.054 750.531 287.735C729.495 283.099 723.836 279.833 723.836 272.142C723.836 263.818 735.689 258.024 749.25 259.709C757.472 260.763 760.035 261.817 765.161 266.768C769.432 270.877 769.646 270.983 773.383 269.718C777.654 268.349 777.868 267.717 775.625 263.397C770.927 254.336 753.628 248.752 737.184 250.965Z" fill="#1A1A1A"/>
<path d="M822.609 253.072C817.59 254.863 814.707 256.759 809.154 262.238C799.758 271.51 797.088 277.936 797.088 291.844C796.981 303.539 799.01 310.071 804.99 317.867C819.833 337.359 852.722 339.571 870.234 322.292C874.933 317.657 874.826 316.287 869.06 313.969C866.07 312.81 865.643 312.915 861.158 316.814C849.412 327.033 830.084 327.033 818.338 316.919C812.892 312.178 808.193 303.855 808.193 299.008V296.058L843.752 295.847L879.204 295.531L879.097 289.21C878.884 276.672 872.797 264.24 863.614 257.602C854.003 250.543 835.957 248.541 822.609 253.072ZM852.295 262.449C860.944 266.768 866.177 273.511 867.565 282.256L868.312 286.576H838.199H808.193V284.153C808.3 280.676 811.717 273.827 815.668 269.297C819.512 264.977 825.813 261.395 831.686 260.131C837.452 258.867 847.276 259.92 852.295 262.449Z" fill="#1A1A1A"/>
<path d="M580.428 252.44C579.253 253.599 579.573 299.956 580.855 307.648C583.631 324.926 597.193 335.146 615.239 333.671C623.355 332.934 629.762 330.405 635.207 325.558C637.236 323.767 639.158 322.398 639.692 322.398C640.12 322.398 640.547 324.505 640.547 327.139V331.88H645.352H650.157V291.738V251.702L645.352 252.018L640.44 252.334L640.226 277.62C639.906 300.905 639.692 303.328 637.557 308.806C636.275 311.967 633.926 315.865 632.218 317.446C622.18 326.928 603.813 326.717 596.552 317.024C591.533 310.387 591.106 307.648 590.679 279.201L590.359 252.334L585.767 252.018C583.311 251.808 580.855 252.018 580.428 252.44Z" fill="#1A1A1A"/>
</g>
<defs>
<filter id="filter0_d_160_33" x="-5.36041" y="0" width="889.925" height="526.685" filterUnits="userSpaceOnUse" color-interpolation-filters="sRGB">
<feFlood flood-opacity="0" result="BackgroundImageFix"/>
<feColorMatrix in="SourceAlpha" type="matrix" values="0 0 0 0 0 0 0 0 0 0 0 0 0 0 0 0 0 0 127 0" result="hardAlpha"/>
<feOffset dy="5.36041"/>
<feGaussianBlur stdDeviation="2.68021"/>
<feComposite in2="hardAlpha" operator="out"/>
<feColorMatrix type="matrix" values="0 0 0 0 0 0 0 0 0 0 0 0 0 0 0 0 0 0 0.25 0"/>
<feBlend mode="normal" in2="BackgroundImageFix" result="effect1_dropShadow_160_33"/>
<feBlend mode="normal" in="SourceGraphic" in2="effect1_dropShadow_160_33" result="shape"/>
</filter>
</defs>
</svg>
