<svg width="900" height="1420" viewBox="0 0 900 1420" fill="none" xmlns="http://www.w3.org/2000/svg">
<g clip-path="url(#clip0_160_41)">
<g filter="url(#filter0_d_160_41)">
<path d="M523.618 51.3191C519.358 150.766 514.742 391.989 512.611 617.555C510.836 823.407 508.35 935.32 505.51 933.001C504.8 932.421 502.669 861.098 500.539 774.118C491.307 394.598 485.626 200.344 483.141 186.137C481.721 177.729 479.235 170.481 477.105 170.191C474.974 169.901 472.844 213.681 471.424 294.282C468.583 446.206 465.032 712.943 464.322 807.46C463.257 920.534 458.641 843.412 454.025 639.3C449.409 431.709 445.149 319.216 441.953 316.896C440.888 315.737 438.047 316.317 436.272 317.766C432.366 320.955 427.75 436.058 423.49 618.425C422.424 678.731 420.649 727.439 419.939 726.859C418.874 726.28 416.033 674.382 412.838 611.467C409.997 548.552 406.802 494.334 405.736 490.565C404.671 486.796 402.186 484.187 399.7 485.057C395.439 486.216 393.664 521.298 384.787 756.722C381.592 841.093 378.396 839.353 372.715 749.474C368.454 685.109 362.418 629.732 359.578 625.673C356.027 621.034 348.216 623.354 346.085 629.732C345.02 633.502 340.759 665.684 336.854 701.635C326.202 801.372 325.491 806.591 322.651 803.981C321.231 802.822 317.325 780.787 314.129 755.273C310.934 729.759 307.028 705.115 305.608 700.476C302.057 690.328 295.666 687.429 292.825 694.967C289.63 703.375 277.202 804.561 274.362 843.122C271.876 880.523 265.84 894.73 265.84 863.417C265.84 834.134 259.094 692.938 255.188 639.3C250.573 575.515 248.442 562.468 242.406 562.468C235.305 562.468 232.464 580.444 225.008 685.689C215.776 813.259 212.936 844.282 211.16 845.731C209.03 847.761 206.544 834.134 201.929 792.964C194.117 721.931 189.146 701.635 180.269 701.635C178.494 701.635 175.299 704.825 173.523 708.884C169.617 717.002 155.77 783.686 155.77 793.544C155.77 807.46 149.379 799.342 143.698 777.887C135.531 746.865 127.72 739.906 120.618 757.302C118.488 762.521 113.872 783.686 109.966 804.271C106.061 824.566 102.155 841.962 101.09 842.832C98.9594 844.572 96.829 837.903 90.0827 812.679C84.0466 788.035 75.8801 771.219 70.9092 771.219C65.5832 771.219 57.4167 782.526 52.8008 796.443C50.6704 803.401 48.1849 808.91 47.1197 808.91C46.0545 808.91 40.7286 806.011 34.6924 802.242C24.7506 796.443 19.4246 795.863 -35.2556 794.993C-92.4212 794.124 -106.979 795.863 -102.008 802.822C-100.233 804.851 -79.6388 806.011 -39.8714 806.011H20.1347L30.7867 814.999C44.6343 826.596 52.8008 825.146 62.0325 808.91C71.2642 793.834 70.9091 793.544 81.2061 833.554C89.0175 863.127 92.5682 869.796 101.09 869.796C108.546 869.796 112.452 859.358 120.263 819.638C124.169 800.502 128.075 784.266 128.785 783.396C129.85 782.816 131.625 786.005 132.691 790.354C137.662 809.2 147.248 830.365 151.154 831.235C158.61 833.264 162.871 821.377 169.973 782.236C173.878 761.361 177.429 743.676 178.494 743.096C180.27 741.356 187.016 781.077 191.277 820.507C196.603 868.926 201.928 897.919 207.254 903.428C211.515 908.357 211.87 908.067 215.421 902.848C220.747 894.73 226.428 852.4 230.334 792.964C235.305 717.872 238.145 692.937 241.341 691.198C243.116 690.328 244.536 696.127 244.536 704.245C244.536 725.99 254.833 917.345 257.319 941.409C259.449 961.994 263 968.952 269.746 963.444C274.007 959.965 278.623 930.102 286.789 850.95C291.05 812.679 295.311 775.568 296.376 768.32C298.506 756.722 299.217 756.143 301.347 762.811C302.767 766.87 304.898 780.497 306.318 793.254C309.158 819.348 315.195 857.329 317.68 864.577C320.521 871.825 328.687 870.956 331.173 863.127C332.238 859.648 336.143 828.046 340.404 792.964C344.31 757.882 348.571 720.771 349.636 710.623C352.832 683.66 356.737 694.097 359.223 734.978C367.389 866.317 376.266 957.935 380.882 961.994C382.302 962.864 384.432 962.284 386.208 960.834C390.469 957.355 397.215 855.879 397.57 789.485C398.635 684.24 402.541 699.316 405.381 817.608C408.577 962.864 413.193 1063.76 416.388 1066.37C424.555 1072.75 425.975 1046.36 430.946 817.608C432.011 770.639 433.787 698.736 435.207 658.146C437.692 588.852 438.047 586.533 440.178 619.005C441.243 638.14 443.728 721.061 445.149 803.111C449.054 1030.42 458.641 1267.87 463.612 1269.03C466.098 1269.9 468.228 1264.1 469.648 1251.93C472.844 1225.25 478.88 899.369 478.88 756.722C478.88 687.429 480.3 635.531 482.076 637.85C483.851 640.17 486.336 702.215 487.401 775.568C488.822 848.921 492.372 972.721 494.858 1051C497.698 1128.99 500.894 1222.35 501.959 1258.3C504.445 1328.76 505.51 1339.19 511.191 1334.56C516.162 1330.5 520.068 1160.31 525.394 737.877C527.524 543.333 530.72 381.551 532.14 378.652C533.56 375.462 535.69 432.869 537.111 506.222C538.531 579.284 540.306 647.128 541.017 656.696C542.082 666.264 544.212 759.622 546.342 863.997C553.799 1252.51 557.35 1405.01 559.125 1412.84C560.19 1417.19 563.031 1420.38 565.161 1419.8C568.002 1419.22 570.132 1400.95 571.907 1362.39C574.748 1289.33 584.335 845.442 587.53 645.099C588.595 558.989 591.081 483.897 592.501 478.388C594.276 472.01 595.342 485.347 595.697 516.079C596.052 542.463 597.827 608.278 599.602 662.495C601.378 716.712 604.573 851.82 606.704 962.574C610.609 1190.17 612.385 1223.51 619.131 1223.51C621.972 1223.51 624.457 1217.42 625.877 1205.54C630.138 1168.43 640.08 937.93 646.116 739.327C648.246 665.104 651.442 601.319 652.862 597.26C654.993 592.041 656.058 596.1 656.058 611.757C656.413 636.111 661.739 810.65 667.065 972.721C668.84 1031.58 671.681 1084.92 672.746 1090.72C676.652 1108.99 683.753 1104.06 686.239 1082.03C691.565 1032.45 701.151 862.258 706.122 726.28C707.898 672.062 711.093 623.644 712.869 619.005L716.064 610.307L716.419 619.005C717.484 649.448 731.332 832.105 733.107 838.483C734.172 843.122 737.368 846.601 739.854 846.601C745.18 846.601 752.281 829.785 752.281 816.738C752.281 812.389 753.701 808.91 755.121 808.91C756.897 808.91 759.382 824.856 760.447 844.282C765.773 924.303 774.65 953.586 787.787 933.581C792.048 927.202 799.15 872.985 807.316 787.165C818.678 666.844 820.453 650.607 823.294 643.649C826.845 634.081 829.33 651.477 833.946 721.931C839.272 795.573 847.439 869.216 852.054 880.523C856.67 892.41 866.967 893.28 872.648 881.973C877.619 871.825 884.72 833.844 896.083 756.722C901.053 722.51 906.379 691.778 908.155 688.589C912.416 680.47 914.546 699.316 919.162 787.165C925.198 899.949 929.459 956.775 931.589 959.675C933.009 961.414 936.915 962.574 940.466 962.574C949.698 962.574 955.379 945.468 967.096 885.742C976.327 838.773 991.24 779.917 997.276 766.87C1004.38 751.504 1011.12 759.332 1029.23 804.561C1042.72 838.483 1051.25 849.501 1062.96 849.501C1079.65 849.501 1088.88 828.915 1105.57 753.823C1110.9 730.629 1116.22 710.623 1118 709.464C1121.55 705.984 1126.88 725.99 1137.53 783.106C1146.4 831.815 1153.86 854.719 1161.67 858.778C1176.94 866.896 1187.59 855.589 1203.57 814.129C1209.61 797.893 1217.77 782.236 1223.1 777.887L1231.62 769.769L1241.56 779.917C1263.93 803.691 1273.52 808.91 1293.05 808.91C1328.55 808.91 1363.7 784.556 1386.07 744.545C1391.04 735.557 1403.12 703.085 1412.35 672.932C1421.94 641.91 1434.36 609.727 1440.4 599.58C1454.6 575.805 1483.01 552.901 1512.12 541.303C1534.49 532.315 1536.62 532.026 1581.36 532.026C1626.1 532.026 1628.23 532.315 1651.66 541.303C1742.91 576.675 1770.97 670.033 1710.25 735.847C1693.92 753.533 1661.6 772.089 1634.97 778.757C1625.03 781.077 1594.85 784.266 1568.22 785.716C1500.05 789.485 1466.67 799.342 1436.14 825.146C1394.59 860.228 1380.75 901.398 1380.75 992.147V1035.06H1398.15H1415.54L1417.32 971.852C1418.38 922.853 1420.16 905.457 1425.13 892.99C1435.07 867.186 1446.79 850.95 1464.54 838.483C1490.11 819.928 1512.12 814.709 1574.26 811.809C1651.31 808.33 1686.81 796.733 1726.23 762.521C1782.68 713.233 1794.04 649.738 1757.12 587.402C1736.52 552.321 1700.66 526.807 1650.6 511.73C1627.52 504.482 1618.64 503.322 1584.91 503.322C1552.6 503.032 1541.24 504.482 1519.22 510.281C1459.57 525.937 1411.28 567.687 1394.95 617.555C1392.82 624.224 1387.14 648.288 1382.52 670.903C1368.32 740.196 1346.31 776.148 1308.31 792.094C1289.85 799.922 1281.68 797.313 1260.38 777.308C1241.21 759.332 1234.46 756.143 1221.68 759.912C1209.96 763.391 1201.08 777.598 1187.24 813.839C1180.14 831.815 1173.03 846.601 1171.26 846.601C1165.93 846.601 1160.96 829.785 1152.09 781.077C1137.88 706.274 1130.78 687.139 1117.29 687.139C1107.7 687.139 1102.02 700.186 1093.14 741.066C1079.65 803.981 1069.35 835.004 1062.61 835.004C1058.35 835.004 1050.18 819.927 1039.88 792.964C1029.94 766.58 1017.52 748.024 1008.99 746.285C998.342 743.965 990.885 749.184 982.364 765.13C974.552 780.497 960.349 835.874 953.248 881.103C950.408 899.369 946.147 915.605 944.371 917.055C941.531 919.374 940.466 919.084 940.466 915.895C940.111 877.624 926.973 695.837 922.357 668.293C918.097 642.489 916.321 637.85 910.285 637.85C907.445 637.85 903.894 640.17 901.764 642.779C898.568 647.998 885.786 719.611 881.525 756.722C880.46 767.16 876.554 793.254 872.648 814.709C869.098 836.164 865.902 855.009 865.902 856.459C865.902 858.198 864.837 858.198 862.706 856.459C859.511 853.849 854.895 812.969 848.149 724.83C838.917 606.828 835.366 576.965 828.975 572.036C824.714 568.557 816.903 574.066 815.127 582.474C812.997 591.461 809.446 623.644 793.113 788.325C784.947 869.216 783.172 881.683 779.266 878.204C778.556 877.624 776.07 846.891 773.585 810.36C771.454 773.538 768.259 739.037 766.838 733.528C762.933 718.162 754.766 720.481 751.216 737.877C749.795 745.705 747.31 757.012 746.245 762.521L744.114 772.669L741.629 763.971C740.209 759.042 737.013 723.96 734.527 685.689C730.622 616.106 721.745 530.576 718.194 521.008C715.709 514.92 707.542 514.63 704.702 520.718C701.861 527.097 684.818 866.607 684.818 920.244C684.818 927.492 683.398 930.681 681.623 928.942C679.492 927.492 676.652 858.488 674.521 769.769C669.55 570.296 663.869 414.023 661.384 396.338C657.833 376.042 650.377 378.652 647.891 400.687C645.761 424.461 639.725 550.001 635.109 671.193C625.877 916.475 624.102 960.834 623.037 961.704C620.551 963.734 617.356 863.417 612.03 607.408C605.639 309.648 600.668 173.67 595.697 169.901C593.566 168.161 591.436 168.161 589.305 169.901C585.045 173.38 579.364 353.428 574.748 617.555C569.777 909.806 566.936 1015.63 564.096 1000.26C562.676 993.017 560.545 935.61 559.125 872.695C553.089 561.019 541.727 142.068 536.756 45.5205C535.335 12.4683 533.56 0.0012207 530.365 0.0012207C527.169 0.0012207 525.394 13.6281 523.618 51.3191Z" fill="white" fill-opacity="0.1" shape-rendering="crispEdges"/>
<path d="M523.618 51.3191C519.358 150.766 514.742 391.989 512.611 617.555C510.836 823.407 508.35 935.32 505.51 933.001C504.8 932.421 502.669 861.098 500.539 774.118C491.307 394.598 485.626 200.344 483.141 186.137C481.721 177.729 479.235 170.481 477.105 170.191C474.974 169.901 472.844 213.681 471.424 294.282C468.583 446.206 465.032 712.943 464.322 807.46C463.257 920.534 458.641 843.412 454.025 639.3C449.409 431.709 445.149 319.216 441.953 316.896C440.888 315.737 438.047 316.317 436.272 317.766C432.366 320.955 427.75 436.058 423.49 618.425C422.424 678.731 420.649 727.439 419.939 726.859C418.874 726.28 416.033 674.382 412.838 611.467C409.997 548.552 406.802 494.334 405.736 490.565C404.671 486.796 402.186 484.187 399.7 485.057C395.439 486.216 393.664 521.298 384.787 756.722C381.592 841.093 378.396 839.353 372.715 749.474C368.454 685.109 362.418 629.732 359.578 625.673C356.027 621.034 348.216 623.354 346.085 629.732C345.02 633.502 340.759 665.684 336.854 701.635C326.202 801.372 325.491 806.591 322.651 803.981C321.231 802.822 317.325 780.787 314.129 755.273C310.934 729.759 307.028 705.115 305.608 700.476C302.057 690.328 295.666 687.429 292.825 694.967C289.63 703.375 277.202 804.561 274.362 843.122C271.876 880.523 265.84 894.73 265.84 863.417C265.84 834.134 259.094 692.938 255.188 639.3C250.573 575.515 248.442 562.468 242.406 562.468C235.305 562.468 232.464 580.444 225.008 685.689C215.776 813.259 212.936 844.282 211.16 845.731C209.03 847.761 206.544 834.134 201.929 792.964C194.117 721.931 189.146 701.635 180.269 701.635C178.494 701.635 175.299 704.825 173.523 708.884C169.617 717.002 155.77 783.686 155.77 793.544C155.77 807.46 149.379 799.342 143.698 777.887C135.531 746.865 127.72 739.906 120.618 757.302C118.488 762.521 113.872 783.686 109.966 804.271C106.061 824.566 102.155 841.962 101.09 842.832C98.9594 844.572 96.829 837.903 90.0827 812.679C84.0466 788.035 75.8801 771.219 70.9092 771.219C65.5832 771.219 57.4167 782.526 52.8008 796.443C50.6704 803.401 48.1849 808.91 47.1197 808.91C46.0545 808.91 40.7286 806.011 34.6924 802.242C24.7506 796.443 19.4246 795.863 -35.2556 794.993C-92.4212 794.124 -106.979 795.863 -102.008 802.822C-100.233 804.851 -79.6388 806.011 -39.8714 806.011H20.1347L30.7867 814.999C44.6343 826.596 52.8008 825.146 62.0325 808.91C71.2642 793.834 70.9091 793.544 81.2061 833.554C89.0175 863.127 92.5682 869.796 101.09 869.796C108.546 869.796 112.452 859.358 120.263 819.638C124.169 800.502 128.075 784.266 128.785 783.396C129.85 782.816 131.625 786.005 132.691 790.354C137.662 809.2 147.248 830.365 151.154 831.235C158.61 833.264 162.871 821.377 169.973 782.236C173.878 761.361 177.429 743.676 178.494 743.096C180.27 741.356 187.016 781.077 191.277 820.507C196.603 868.926 201.928 897.919 207.254 903.428C211.515 908.357 211.87 908.067 215.421 902.848C220.747 894.73 226.428 852.4 230.334 792.964C235.305 717.872 238.145 692.937 241.341 691.198C243.116 690.328 244.536 696.127 244.536 704.245C244.536 725.99 254.833 917.345 257.319 941.409C259.449 961.994 263 968.952 269.746 963.444C274.007 959.965 278.623 930.102 286.789 850.95C291.05 812.679 295.311 775.568 296.376 768.32C298.506 756.722 299.217 756.143 301.347 762.811C302.767 766.87 304.898 780.497 306.318 793.254C309.158 819.348 315.195 857.329 317.68 864.577C320.521 871.825 328.687 870.956 331.173 863.127C332.238 859.648 336.143 828.046 340.404 792.964C344.31 757.882 348.571 720.771 349.636 710.623C352.832 683.66 356.737 694.097 359.223 734.978C367.389 866.317 376.266 957.935 380.882 961.994C382.302 962.864 384.432 962.284 386.208 960.834C390.469 957.355 397.215 855.879 397.57 789.485C398.635 684.24 402.541 699.316 405.381 817.608C408.577 962.864 413.193 1063.76 416.388 1066.37C424.555 1072.75 425.975 1046.36 430.946 817.608C432.011 770.639 433.787 698.736 435.207 658.146C437.692 588.852 438.047 586.533 440.178 619.005C441.243 638.14 443.728 721.061 445.149 803.111C449.054 1030.42 458.641 1267.87 463.612 1269.03C466.098 1269.9 468.228 1264.1 469.648 1251.93C472.844 1225.25 478.88 899.369 478.88 756.722C478.88 687.429 480.3 635.531 482.076 637.85C483.851 640.17 486.336 702.215 487.401 775.568C488.822 848.921 492.372 972.721 494.858 1051C497.698 1128.99 500.894 1222.35 501.959 1258.3C504.445 1328.76 505.51 1339.19 511.191 1334.56C516.162 1330.5 520.068 1160.31 525.394 737.877C527.524 543.333 530.72 381.551 532.14 378.652C533.56 375.462 535.69 432.869 537.111 506.222C538.531 579.284 540.306 647.128 541.017 656.696C542.082 666.264 544.212 759.622 546.342 863.997C553.799 1252.51 557.35 1405.01 559.125 1412.84C560.19 1417.19 563.031 1420.38 565.161 1419.8C568.002 1419.22 570.132 1400.95 571.907 1362.39C574.748 1289.33 584.335 845.442 587.53 645.099C588.595 558.989 591.081 483.897 592.501 478.388C594.276 472.01 595.342 485.347 595.697 516.079C596.052 542.463 597.827 608.278 599.602 662.495C601.378 716.712 604.573 851.82 606.704 962.574C610.609 1190.17 612.385 1223.51 619.131 1223.51C621.972 1223.51 624.457 1217.42 625.877 1205.54C630.138 1168.43 640.08 937.93 646.116 739.327C648.246 665.104 651.442 601.319 652.862 597.26C654.993 592.041 656.058 596.1 656.058 611.757C656.413 636.111 661.739 810.65 667.065 972.721C668.84 1031.58 671.681 1084.92 672.746 1090.72C676.652 1108.99 683.753 1104.06 686.239 1082.03C691.565 1032.45 701.151 862.258 706.122 726.28C707.898 672.062 711.093 623.644 712.869 619.005L716.064 610.307L716.419 619.005C717.484 649.448 731.332 832.105 733.107 838.483C734.172 843.122 737.368 846.601 739.854 846.601C745.18 846.601 752.281 829.785 752.281 816.738C752.281 812.389 753.701 808.91 755.121 808.91C756.897 808.91 759.382 824.856 760.447 844.282C765.773 924.303 774.65 953.586 787.787 933.581C792.048 927.202 799.15 872.985 807.316 787.165C818.678 666.844 820.453 650.607 823.294 643.649C826.845 634.081 829.33 651.477 833.946 721.931C839.272 795.573 847.439 869.216 852.054 880.523C856.67 892.41 866.967 893.28 872.648 881.973C877.619 871.825 884.72 833.844 896.083 756.722C901.053 722.51 906.379 691.778 908.155 688.589C912.416 680.47 914.546 699.316 919.162 787.165C925.198 899.949 929.459 956.775 931.589 959.675C933.009 961.414 936.915 962.574 940.466 962.574C949.698 962.574 955.379 945.468 967.096 885.742C976.327 838.773 991.24 779.917 997.276 766.87C1004.38 751.504 1011.12 759.332 1029.23 804.561C1042.72 838.483 1051.25 849.501 1062.96 849.501C1079.65 849.501 1088.88 828.915 1105.57 753.823C1110.9 730.629 1116.22 710.623 1118 709.464C1121.55 705.984 1126.88 725.99 1137.53 783.106C1146.4 831.815 1153.86 854.719 1161.67 858.778C1176.94 866.896 1187.59 855.589 1203.57 814.129C1209.61 797.893 1217.77 782.236 1223.1 777.887L1231.62 769.769L1241.56 779.917C1263.93 803.691 1273.52 808.91 1293.05 808.91C1328.55 808.91 1363.7 784.556 1386.07 744.545C1391.04 735.557 1403.12 703.085 1412.35 672.932C1421.94 641.91 1434.36 609.727 1440.4 599.58C1454.6 575.805 1483.01 552.901 1512.12 541.303C1534.49 532.315 1536.62 532.026 1581.36 532.026C1626.1 532.026 1628.23 532.315 1651.66 541.303C1742.91 576.675 1770.97 670.033 1710.25 735.847C1693.92 753.533 1661.6 772.089 1634.97 778.757C1625.03 781.077 1594.85 784.266 1568.22 785.716C1500.05 789.485 1466.67 799.342 1436.14 825.146C1394.59 860.228 1380.75 901.398 1380.75 992.147V1035.06H1398.15H1415.54L1417.32 971.852C1418.38 922.853 1420.16 905.457 1425.13 892.99C1435.07 867.186 1446.79 850.95 1464.54 838.483C1490.11 819.928 1512.12 814.709 1574.26 811.809C1651.31 808.33 1686.81 796.733 1726.23 762.521C1782.68 713.233 1794.04 649.738 1757.12 587.402C1736.52 552.321 1700.66 526.807 1650.6 511.73C1627.52 504.482 1618.64 503.322 1584.91 503.322C1552.6 503.032 1541.24 504.482 1519.22 510.281C1459.57 525.937 1411.28 567.687 1394.95 617.555C1392.82 624.224 1387.14 648.288 1382.52 670.903C1368.32 740.196 1346.31 776.148 1308.31 792.094C1289.85 799.922 1281.68 797.313 1260.38 777.308C1241.21 759.332 1234.46 756.143 1221.68 759.912C1209.96 763.391 1201.08 777.598 1187.24 813.839C1180.14 831.815 1173.03 846.601 1171.26 846.601C1165.93 846.601 1160.96 829.785 1152.09 781.077C1137.88 706.274 1130.78 687.139 1117.29 687.139C1107.7 687.139 1102.02 700.186 1093.14 741.066C1079.65 803.981 1069.35 835.004 1062.61 835.004C1058.35 835.004 1050.18 819.927 1039.88 792.964C1029.94 766.58 1017.52 748.024 1008.99 746.285C998.342 743.965 990.885 749.184 982.364 765.13C974.552 780.497 960.349 835.874 953.248 881.103C950.408 899.369 946.147 915.605 944.371 917.055C941.531 919.374 940.466 919.084 940.466 915.895C940.111 877.624 926.973 695.837 922.357 668.293C918.097 642.489 916.321 637.85 910.285 637.85C907.445 637.85 903.894 640.17 901.764 642.779C898.568 647.998 885.786 719.611 881.525 756.722C880.46 767.16 876.554 793.254 872.648 814.709C869.098 836.164 865.902 855.009 865.902 856.459C865.902 858.198 864.837 858.198 862.706 856.459C859.511 853.849 854.895 812.969 848.149 724.83C838.917 606.828 835.366 576.965 828.975 572.036C824.714 568.557 816.903 574.066 815.127 582.474C812.997 591.461 809.446 623.644 793.113 788.325C784.947 869.216 783.172 881.683 779.266 878.204C778.556 877.624 776.07 846.891 773.585 810.36C771.454 773.538 768.259 739.037 766.838 733.528C762.933 718.162 754.766 720.481 751.216 737.877C749.795 745.705 747.31 757.012 746.245 762.521L744.114 772.669L741.629 763.971C740.209 759.042 737.013 723.96 734.527 685.689C730.622 616.106 721.745 530.576 718.194 521.008C715.709 514.92 707.542 514.63 704.702 520.718C701.861 527.097 684.818 866.607 684.818 920.244C684.818 927.492 683.398 930.681 681.623 928.942C679.492 927.492 676.652 858.488 674.521 769.769C669.55 570.296 663.869 414.023 661.384 396.338C657.833 376.042 650.377 378.652 647.891 400.687C645.761 424.461 639.725 550.001 635.109 671.193C625.877 916.475 624.102 960.834 623.037 961.704C620.551 963.734 617.356 863.417 612.03 607.408C605.639 309.648 600.668 173.67 595.697 169.901C593.566 168.161 591.436 168.161 589.305 169.901C585.045 173.38 579.364 353.428 574.748 617.555C569.777 909.806 566.936 1015.63 564.096 1000.26C562.676 993.017 560.545 935.61 559.125 872.695C553.089 561.019 541.727 142.068 536.756 45.5205C535.335 12.4683 533.56 0.0012207 530.365 0.0012207C527.169 0.0012207 525.394 13.6281 523.618 51.3191Z" stroke="white" stroke-width="2.45286" shape-rendering="crispEdges"/>
</g>
</g>
<defs>
<filter id="filter0_d_160_41" x="-109.95" y="-1.2251" width="1895.46" height="1433.94" filterUnits="userSpaceOnUse" color-interpolation-filters="sRGB">
<feFlood flood-opacity="0" result="BackgroundImageFix"/>
<feColorMatrix in="SourceAlpha" type="matrix" values="0 0 0 0 0 0 0 0 0 0 0 0 0 0 0 0 0 0 127 0" result="hardAlpha"/>
<feOffset dy="5.80889"/>
<feGaussianBlur stdDeviation="2.90444"/>
<feComposite in2="hardAlpha" operator="out"/>
<feColorMatrix type="matrix" values="0 0 0 0 0 0 0 0 0 0 0 0 0 0 0 0 0 0 0.25 0"/>
<feBlend mode="normal" in2="BackgroundImageFix" result="effect1_dropShadow_160_41"/>
<feBlend mode="normal" in="SourceGraphic" in2="effect1_dropShadow_160_41" result="shape"/>
</filter>
<clipPath id="clip0_160_41">
<rect width="1419" height="1419.93" fill="white" transform="translate(-76)"/>
</clipPath>
</defs>
</svg>
